<svg width="167" height="243" viewBox="0 0 167 243" fill="none" xmlns="http://www.w3.org/2000/svg">
<g id="Group 1">
<path id="Vector" fill-rule="evenodd" clip-rule="evenodd" d="M57.1408 56.2648C57.0014 56.1499 57.2253 56.1623 57.2979 56.2497C57.3704 56.3371 57.2208 56.3515 57.1408 56.2648Z" fill="#2B1105"/>
<path id="Vector_2" fill-rule="evenodd" clip-rule="evenodd" d="M91.5754 23.2774C91.436 23.1624 91.6599 23.1749 91.74 23.2616C91.82 23.3483 91.6595 23.3675 91.5754 23.2774Z" fill="#2B1105"/>
<path id="Vector_3" fill-rule="evenodd" clip-rule="evenodd" d="M92.5034 27.8804C92.4009 27.7959 92.5286 27.7497 92.5778 27.7902C92.627 27.8308 92.5526 27.921 92.5034 27.8804Z" fill="#2B1105"/>
<path id="Vector_4" fill-rule="evenodd" clip-rule="evenodd" d="M92.8437 28.0024C92.7453 27.9213 92.8689 27.8716 92.9147 27.9163C92.9605 27.961 92.8929 28.043 92.8437 28.0024Z" fill="#2B1105"/>
<path id="Vector_5" fill-rule="evenodd" clip-rule="evenodd" d="M93.1772 28.1398C93.0916 28.0348 93.2024 28.0091 93.2516 28.0496C93.3008 28.0902 93.2223 28.177 93.1772 28.1398Z" fill="#2B1105"/>
<path id="Vector_6" fill-rule="evenodd" clip-rule="evenodd" d="M67.0721 77.1447C66.986 77.0737 67.0903 76.9806 67.1239 76.8981C67.21 76.9691 67.1057 77.0622 67.0721 77.1447Z" fill="#2B1105"/>
<path id="Vector_7" fill-rule="evenodd" clip-rule="evenodd" d="M85.0661 55.6856C85.0653 55.5844 85.0896 55.4847 85.137 55.3952C85.1843 55.3058 85.2531 55.2296 85.3373 55.1734C85.7772 54.8484 84.8152 56.1733 85.2113 55.5096C85.2079 55.5137 85.1016 55.8593 85.0661 55.6856Z" fill="#2B1105"/>
<path id="Vector_8" fill-rule="evenodd" clip-rule="evenodd" d="M67.7481 80.8034C67.6662 80.7359 67.7703 80.643 67.8073 80.5565L68.0233 80.2946C68.221 80.4301 67.8036 80.636 67.7481 80.8034Z" fill="#2B1105"/>
<path id="Vector_9" fill-rule="evenodd" clip-rule="evenodd" d="M94.2079 49.0715C94.1218 49.0005 94.2302 48.9108 94.2672 48.8242C94.3567 48.8911 94.2558 48.9801 94.2079 49.0715Z" fill="#2B1105"/>
<path id="Vector_10" fill-rule="evenodd" clip-rule="evenodd" d="M122.614 18.0306C122.528 17.9596 122.632 17.8666 122.669 17.78C122.755 17.851 122.651 17.944 122.614 18.0306Z" fill="#2B1105"/>
<path id="Vector_11" fill-rule="evenodd" clip-rule="evenodd" d="M122.834 17.7643C122.748 17.6933 122.852 17.6003 122.889 17.5137C122.972 17.5888 122.864 17.6859 122.834 17.7643Z" fill="#2B1105"/>
<path id="Vector_12" fill-rule="evenodd" clip-rule="evenodd" d="M122.398 18.2921C121.829 18.7734 122.506 18.7046 122.398 18.2921V18.2921Z" fill="#2B1105"/>
<path id="Vector_13" fill-rule="evenodd" clip-rule="evenodd" d="M121.837 19.1566L122.053 18.8942C122.307 19.0623 121.41 19.6657 121.837 19.1566Z" fill="#2B1105"/>
<path id="Vector_14" fill-rule="evenodd" clip-rule="evenodd" d="M87.3984 61.4468C87.2961 61.3624 87.4564 61.2264 87.5278 61.1065L87.7438 60.8445C87.9302 61.0189 87.4776 61.2508 87.3984 61.4468Z" fill="#2B1105"/>
<path id="Vector_15" fill-rule="evenodd" clip-rule="evenodd" d="M88.2135 60.6339C88.111 60.5493 88.2716 60.4131 88.3438 60.3005C88.4328 60.4014 88.2824 60.5253 88.2135 60.6339Z" fill="#2B1105"/>
<path id="Vector_16" fill-rule="evenodd" clip-rule="evenodd" d="M85.1254 64.737C85.0229 64.6525 85.1835 64.5163 85.2591 64.3995C85.3317 64.4869 85.2099 64.6345 85.1254 64.737Z" fill="#2B1105"/>
<path id="Vector_17" fill-rule="evenodd" clip-rule="evenodd" d="M66.384 88.5362L67.471 87.2182C67.5704 87.3896 67.1405 87.8191 66.8346 88.165C66.638 88.395 66.1582 89.0102 66.384 88.5362Z" fill="#2B1105"/>
<path id="Vector_18" fill-rule="evenodd" clip-rule="evenodd" d="M102.673 47.0374C102.587 46.9664 102.699 46.8726 102.733 46.7901C102.819 46.8612 102.71 46.9508 102.673 47.0374Z" fill="#2B1105"/>
<path id="Vector_19" fill-rule="evenodd" clip-rule="evenodd" d="M102.983 46.8456C102.896 46.7746 103.001 46.6816 103.034 46.5991C103.12 46.6701 103.016 46.7631 102.983 46.8456Z" fill="#2B1105"/>
<path id="Vector_20" fill-rule="evenodd" clip-rule="evenodd" d="M103.284 46.6545C103.182 46.57 103.342 46.4338 103.415 46.3211C103.504 46.422 103.357 46.5419 103.284 46.6545Z" fill="#2B1105"/>
<path id="Vector_21" fill-rule="evenodd" clip-rule="evenodd" d="M103.665 46.3769C103.579 46.3059 103.683 46.2128 103.72 46.1262C103.803 46.2013 103.698 46.2944 103.665 46.3769Z" fill="#2B1105"/>
<path id="Vector_22" fill-rule="evenodd" clip-rule="evenodd" d="M103.967 46.1858C103.865 46.1012 104.025 45.965 104.097 45.8524C104.19 45.9492 104.039 46.0731 103.967 46.1858Z" fill="#2B1105"/>
<path id="Vector_23" fill-rule="evenodd" clip-rule="evenodd" d="M127.011 22.5383C126.926 22.4674 127.034 22.3779 127.067 22.2955L127.29 22.0253C127.478 22.1806 127.071 22.3743 127.011 22.5383Z" fill="#2B1105"/>
<path id="Vector_24" fill-rule="evenodd" clip-rule="evenodd" d="M27.6986 145.466C27.6125 145.395 27.7168 145.302 27.7538 145.215C27.8365 145.291 27.7322 145.384 27.6986 145.466Z" fill="#2B1105"/>
<path id="Vector_25" fill-rule="evenodd" clip-rule="evenodd" d="M28.4484 144.908C28.3664 144.84 28.4741 144.743 28.5077 144.66C28.5938 144.731 28.503 144.808 28.4484 144.908Z" fill="#2B1105"/>
<path id="Vector_26" fill-rule="evenodd" clip-rule="evenodd" d="M29.0287 144.203C28.4671 144.684 29.1404 144.619 29.0287 144.203V144.203Z" fill="#2B1105"/>
<path id="Vector_27" fill-rule="evenodd" clip-rule="evenodd" d="M46.88 122.917C46.798 122.85 46.9024 122.757 46.9393 122.67C47.022 122.745 46.9076 122.85 46.88 122.917Z" fill="#2B1105"/>
<path id="Vector_28" fill-rule="evenodd" clip-rule="evenodd" d="M50.39 118.845C50.2875 118.761 50.4481 118.624 50.5196 118.504C50.5957 118.629 50.4453 118.753 50.39 118.845Z" fill="#2B1105"/>
<path id="Vector_29" fill-rule="evenodd" clip-rule="evenodd" d="M29.9606 143.79C29.8745 143.719 29.9829 143.629 30.0199 143.543C30.1026 143.618 29.9942 143.707 29.9606 143.79Z" fill="#2B1105"/>
<path id="Vector_30" fill-rule="evenodd" clip-rule="evenodd" d="M50.2431 119.198C50.157 119.127 50.2654 119.037 50.3024 118.951C50.3851 119.026 50.2801 119.111 50.2431 119.198Z" fill="#2B1105"/>
<path id="Vector_31" fill-rule="evenodd" clip-rule="evenodd" d="M128.984 23.7243C128.882 23.6398 129.042 23.5036 129.114 23.3909C129.207 23.4878 129.056 23.6117 128.984 23.7243Z" fill="#2B1105"/>
<path id="Vector_32" fill-rule="evenodd" clip-rule="evenodd" d="M30.2672 143.603C30.1811 143.532 30.2854 143.439 30.3224 143.352C30.4051 143.427 30.2907 143.532 30.2672 143.603Z" fill="#2B1105"/>
<path id="Vector_33" fill-rule="evenodd" clip-rule="evenodd" d="M30.5607 143.405C30.4746 143.334 30.5864 143.24 30.62 143.158C30.7061 143.229 30.6182 143.335 30.5607 143.405Z" fill="#2B1105"/>
<path id="Vector_34" fill-rule="evenodd" clip-rule="evenodd" d="M46.4274 124.167C46.3413 124.096 46.4497 124.006 46.4867 123.92C46.5694 123.995 46.4815 124.101 46.4274 124.167Z" fill="#2B1105"/>
<path id="Vector_35" fill-rule="evenodd" clip-rule="evenodd" d="M30.9493 143.133C30.8632 143.062 30.9675 142.969 31.0045 142.883C31.0906 142.954 30.9863 143.047 30.9493 143.133Z" fill="#2B1105"/>
<path id="Vector_36" fill-rule="evenodd" clip-rule="evenodd" d="M46.306 124.513C46.2199 124.442 46.3242 124.349 46.3612 124.263C46.4473 124.334 46.3329 124.439 46.306 124.513Z" fill="#2B1105"/>
<path id="Vector_37" fill-rule="evenodd" clip-rule="evenodd" d="M31.6317 142.665C31.5251 142.577 31.6932 142.44 31.7613 142.324C31.8502 142.425 31.7032 142.545 31.6317 142.665Z" fill="#2B1105"/>
<path id="Vector_38" fill-rule="evenodd" clip-rule="evenodd" d="M32.008 142.384C31.9219 142.313 32.0296 142.216 32.0673 142.136C32.1534 142.207 32.0449 142.297 32.008 142.384Z" fill="#2B1105"/>
<path id="Vector_39" fill-rule="evenodd" clip-rule="evenodd" d="M32.3177 142.192C32.2316 142.121 32.3359 142.028 32.3729 141.942C32.4556 142.017 32.3513 142.11 32.3177 142.192Z" fill="#2B1105"/>
<path id="Vector_40" fill-rule="evenodd" clip-rule="evenodd" d="M52.8239 119.112C52.7378 119.041 52.8421 118.948 52.8832 118.865C52.9828 118.919 52.8609 119.026 52.8239 119.112Z" fill="#2B1105"/>
<path id="Vector_41" fill-rule="evenodd" clip-rule="evenodd" d="M52.2619 119.977C52.176 119.906 52.2801 119.813 52.317 119.727L52.5331 119.465C52.7356 119.611 52.3175 119.809 52.2619 119.977Z" fill="#2B1105"/>
<path id="Vector_42" fill-rule="evenodd" clip-rule="evenodd" d="M129.728 26.4082C129.642 26.3372 129.749 26.2401 129.783 26.1576C129.876 26.2204 129.765 26.3216 129.728 26.4082Z" fill="#2B1105"/>
<path id="Vector_43" fill-rule="evenodd" clip-rule="evenodd" d="M130.033 26.213C129.947 26.142 130.052 26.0489 130.093 25.9657C130.171 26.0374 130.067 26.1305 130.033 26.213Z" fill="#2B1105"/>
<path id="Vector_44" fill-rule="evenodd" clip-rule="evenodd" d="M34.307 144.424C34.225 144.357 34.3294 144.263 34.3663 144.177C34.4491 144.252 34.3481 144.341 34.307 144.424Z" fill="#2B1105"/>
<path id="Vector_45" fill-rule="evenodd" clip-rule="evenodd" d="M34.7425 143.896C34.6606 143.829 34.7647 143.736 34.7983 143.653L35.0177 143.387C35.2236 143.53 34.8021 143.732 34.7425 143.896Z" fill="#2B1105"/>
<path id="Vector_46" fill-rule="evenodd" clip-rule="evenodd" d="M35.4099 143.271C35.3075 143.186 35.4679 143.05 35.5393 142.93L35.7553 142.668C35.9417 142.843 35.489 143.075 35.4099 143.271Z" fill="#2B1105"/>
<path id="Vector_47" fill-rule="evenodd" clip-rule="evenodd" d="M36.2805 142.215L36.5843 141.846C36.7233 142.195 35.5692 143.01 36.2805 142.215Z" fill="#2B1105"/>
<path id="Vector_48" fill-rule="evenodd" clip-rule="evenodd" d="M130.711 28.2508C130.625 28.1798 130.737 28.086 130.771 28.0035C130.857 28.0745 130.752 28.1676 130.711 28.2508Z" fill="#2B1105"/>
<path id="Vector_49" fill-rule="evenodd" clip-rule="evenodd" d="M32.9044 151.679C32.8183 151.608 32.9226 151.515 32.9596 151.428C33.0423 151.503 32.938 151.596 32.9044 151.679Z" fill="#2B1105"/>
<path id="Vector_50" fill-rule="evenodd" clip-rule="evenodd" d="M32.5553 152.278C32.4692 152.207 32.5776 152.117 32.6146 152.03C32.6973 152.105 32.5889 152.195 32.5553 152.278Z" fill="#2B1105"/>
<path id="Vector_51" fill-rule="evenodd" clip-rule="evenodd" d="M59.1942 124.814C59.0876 124.726 59.2516 124.585 59.3238 124.473C59.4127 124.574 59.2657 124.693 59.1942 124.814Z" fill="#2B1105"/>
<path id="Vector_52" fill-rule="evenodd" clip-rule="evenodd" d="M45.495 148.046C45.4089 147.975 45.5132 147.882 45.5502 147.795C45.6363 147.866 45.532 147.959 45.495 148.046Z" fill="#2B1105"/>
<path id="Vector_53" fill-rule="evenodd" clip-rule="evenodd" d="M62.2472 65.7924C62.0261 65.335 61.3855 65.3362 60.9751 65.1834C59.637 64.6171 58.2674 64.1283 56.8733 63.7193C56.8329 63.2596 57.8235 63.9597 58.0987 63.8428C59.4381 64.3285 60.7536 64.5262 62.0995 65.0792C61.0305 64.0738 59.3256 63.7061 58.0062 62.8793C58.5689 62.9062 59.1244 63.0167 59.6546 63.2071C61.1376 63.6187 62.8003 64.096 64.4028 64.6129C63.7958 64.189 63.137 63.8444 62.4424 63.5876C60.3489 62.5487 58.2387 61.4549 56.0566 60.2398C57.7109 60.7857 59.3662 61.5388 61.0193 62.2695C61.6294 62.5388 62.1479 62.7189 62.8746 63.0637C63.6012 63.4085 64.8822 64.0317 65.9111 64.3852C64.0586 62.7954 61.0404 60.8013 59.1451 58.8049C59.5255 58.8023 59.942 59.2146 60.3346 59.3389C59.9127 58.6747 58.9168 57.9977 58.1023 57.2091C57.8567 57.0065 57.3522 56.6592 57.5317 56.2915C58.2205 56.8467 58.9552 57.3423 59.7281 57.7728C59.5658 57.371 59.2797 57.0315 58.9114 56.8034C61.1824 58.1315 63.3517 59.6264 65.4014 61.2757C66.6766 62.2312 67.9509 63.1377 69.1595 64.2239C69.3418 64.0029 68.8423 63.5496 68.6757 63.3847C68.074 62.7716 67.4882 62.3228 66.9748 61.6862C66.2979 60.8391 65.4966 59.8344 64.8451 58.8982C64.1936 57.962 63.6163 57.0526 63.0408 56.0827C62.8701 55.7976 62.4699 55.5156 62.627 55.15C63.2042 55.626 63.4599 56.0914 64.1361 56.5391C64.2907 56.7353 64.4052 56.5547 64.5282 56.4223C65.2185 57.253 66.3481 58.0264 67.105 58.8432C67.3062 58.4658 66.9065 58.1499 66.7697 57.8239C66.6328 57.4978 66.616 57.1263 66.3559 56.8912C66.344 56.6888 66.4346 56.7291 66.572 56.6292C65.7964 55.068 65.3181 53.4631 64.5784 51.8834C64.6939 51.8685 65.1805 51.9122 64.7945 51.6214C65.0636 51.245 65.0158 51.7283 65.2174 51.8258C65.9964 52.9909 66.9289 54.1451 67.8159 55.2962C68.0478 55.3568 67.7656 55.1653 67.8751 55.0493C67.8479 54.9277 67.7788 54.8196 67.6799 54.7439C67.8275 54.5149 67.5718 54.3246 67.6223 54.1049C67.4875 53.6919 67.3936 53.2667 67.3421 52.8353C67.1107 51.9568 66.8834 51.0816 66.6848 50.23C66.969 50.2856 67.0131 50.6658 67.1536 50.9124C67.5711 51.6487 68.1002 52.5665 68.5241 53.37C68.8078 53.1845 68.5055 52.7839 68.4316 52.4065C68.3576 52.0292 68.2257 51.5971 68.324 51.2862C69.0953 52.8026 70.0118 54.3013 70.6188 55.8335C70.9299 56.0901 70.6743 55.391 70.9249 55.6458C71.4981 56.6687 72.0264 57.6959 72.5099 58.7273C72.6868 57.9792 72.4073 57.2673 72.2238 56.5726C72.2311 55.8444 72.1348 55.1189 71.9377 54.4178C71.954 52.8593 71.8598 51.3016 71.6558 49.7563C71.9563 49.6672 71.9077 50.143 71.9486 50.2936C72.1164 50.8239 72.2473 51.5991 72.4541 52.1822C72.8005 51.904 72.4718 50.9933 72.5317 50.4788C72.8797 50.3737 72.7313 50.9872 72.8396 51.1728C73.0341 52.021 73.2802 52.8567 73.4109 53.7072C73.6539 53.8045 73.4862 53.2741 73.4352 53.1358C73.5828 52.9068 73.2673 52.7223 73.5344 52.4818C73.354 51.5854 73.3115 50.6668 73.4085 49.7576C73.1808 49.3498 73.4447 48.8797 73.2817 48.477C73.5361 48.5355 73.4639 49.3151 73.4794 49.6716C73.5251 50.1354 73.6058 50.5951 73.7207 51.0467C73.8128 50.2396 73.8418 49.4266 73.8075 48.615C73.9861 48.5903 74.0117 49.0929 74.0411 49.3991C74.2556 51.3572 74.3324 53.7657 74.6607 55.8109C74.8582 55.6299 74.8225 55.2978 74.8302 55.0634C74.8378 54.829 74.8137 54.4997 74.8277 54.1742C74.8599 53.7887 74.8667 53.4015 74.8483 53.0151C74.8428 52.88 74.9046 52.7384 74.8917 52.6039C74.8788 52.4695 75.0081 51.854 75.031 51.5428C75.1281 50.7041 75.183 49.8611 75.1954 49.0169C75.4239 48.9233 75.3509 49.5371 75.3472 49.7335C75.3813 51.7767 75.2329 53.8413 75.4504 55.8707C75.4189 57.0265 75.5022 58.1825 75.699 59.3218C75.7602 60.4811 75.9527 61.6296 76.2728 62.7455C76.5813 62.6216 76.4139 62.1741 76.4271 61.8412C76.4404 61.5082 76.5397 61.1293 76.5698 60.7759C76.5774 60.6584 76.53 60.5574 76.539 60.4548C76.548 60.3521 76.6548 60.2476 76.665 60.1185C76.6752 59.9894 76.5365 59.8406 76.5482 59.7265C76.5598 59.6123 76.6673 59.5153 76.6742 59.3902C76.79 57.065 77.2324 54.2937 77.5652 51.8723C77.5487 51.8513 77.5399 51.8254 77.5402 51.7987C77.5405 51.772 77.5499 51.7463 77.5668 51.7257C77.5838 51.7052 77.6073 51.691 77.6334 51.6857C77.6595 51.6803 77.6867 51.684 77.7104 51.6963C77.5676 51.8193 77.6673 51.9152 77.5769 52.0332C77.5921 52.2758 77.589 52.5193 77.5677 52.7615C77.5165 53.2488 77.4502 53.6962 77.385 54.2339C77.3198 54.7715 77.2552 55.1584 77.2064 55.7096C77.0675 57.2456 76.8324 59.115 76.7199 60.769C76.6568 61.7211 76.4179 62.6863 76.7465 63.597C76.916 63.0612 77.0259 62.5084 77.0744 61.9486C77.3615 60.4247 78.0243 58.7706 78.3943 57.1295C78.7136 54.9995 79.555 52.8118 80.0345 50.6627C80.3392 50.7352 80.0889 51.0721 80.0253 51.391C79.6594 53.3106 78.9756 55.7658 78.9299 57.7225C79.1951 57.2958 79.3444 56.8073 79.3629 56.3053C80.0967 54.7234 80.4387 53.183 81.1732 51.6086C80.7334 53.7012 80.0581 55.8126 79.6781 57.8994C79.8669 57.9039 80.0204 57.2258 80.1536 56.9643C80.7598 55.9374 80.9734 54.9445 81.6394 53.9119C81.1889 55.8924 80.5493 57.827 79.9491 59.8973C79.8583 60.2075 79.8113 60.5814 79.7205 60.8917C79.6297 61.2019 79.4263 61.5569 79.3309 61.8977C79.1514 62.5406 79.0572 63.2469 78.877 63.8823C78.6969 64.5177 78.434 65.195 78.2588 65.8827C78.0837 66.5704 77.9348 67.2179 77.805 67.8673C77.6415 68.48 77.5664 69.1129 77.5822 69.7468C77.885 69.2077 78.0741 68.6124 78.1378 67.9974C78.2926 67.458 78.4022 66.9066 78.4657 66.349C79.3172 64.5411 79.9969 62.7496 81.3414 60.8943C81.4889 61.1741 81.0321 61.5195 81.1836 61.8027C82.5422 59.7802 83.3488 57.8182 84.9728 55.774C83.4881 58.3664 82.0003 60.8875 80.7657 63.3768C79.5311 65.866 78.8565 68.3769 78.0819 70.7503C79.2008 69.5687 79.8462 67.969 80.7523 66.6118C80.9438 66.3296 81.1631 66.1804 81.333 65.9078C81.8081 65.1649 82.1354 64.3345 82.6493 63.6029C82.8316 63.3819 83.0409 63.1281 83.2299 62.8989C84.1723 61.3318 85.2465 59.848 86.441 58.4635L86.7313 58.1114C86.8123 58.0132 86.8619 58.1366 86.8214 58.1857C86.4388 58.5579 86.8014 58.5268 86.9782 58.1706C87.2934 58.4306 86.7072 58.8412 86.4318 59.1918C85.6705 60.1732 84.9603 61.1761 84.0575 62.2541C84.3031 62.4566 84.6202 62.0304 84.8258 61.8561C85.118 61.6019 85.2826 61.2356 85.5667 61.1329L85.9279 60.695C86.1068 60.478 86.16 60.6388 86.018 60.7692C83.1687 63.9073 80.7042 67.3742 78.6767 71.0965C79.9181 69.8164 81.0374 67.8923 82.5742 66.1956C83.2693 65.4278 84.0345 64.6835 84.7082 63.9667C85.4959 63.0849 86.3329 62.2482 87.2151 61.4608C86.8237 62.6442 84.7842 64.0913 83.5069 65.7819C84.0133 65.4902 84.4689 65.118 84.8558 64.68C83.5956 66.3915 81.3288 68.6897 80.0915 70.6402C80.4523 70.4133 80.7797 70.137 81.0642 69.8194C81.2701 69.5697 81.4949 69.8308 81.6907 69.5934C81.8865 69.356 82.1066 69.4894 82.2988 69.2146C82.2232 69.5649 81.4599 69.8982 81.0792 69.9763C81.0428 70.1519 80.9641 70.316 80.85 70.4543C80.7359 70.5927 80.5898 70.7012 80.4243 70.7703C80.8944 71.0343 81.2837 70.1036 81.7833 70.5569C81.4663 70.7598 81.1288 70.9286 80.7763 71.0607C80.7341 71.0632 80.6928 71.0743 80.6551 71.0935C80.6173 71.1127 80.5839 71.1394 80.557 71.1721C80.5301 71.2047 80.5102 71.2426 80.4985 71.2833C80.4869 71.324 80.4838 71.3666 80.4894 71.4086C80.3026 71.1514 80.1656 71.451 80.008 71.4586L79.3565 72.2486C79.2736 72.5241 79.7958 72.7416 79.7544 73.0169C80.3974 72.9627 80.9512 72.4497 81.5263 72.1193C82.1068 71.8263 82.6707 71.5016 83.2156 71.1467C82.7455 70.8828 82.3168 71.4027 81.8758 71.5204C81.4486 71.69 81.0345 71.891 80.637 72.1218C80.6647 71.8214 81.0033 71.7361 81.2335 71.5821C81.5745 71.3539 81.9352 71.1565 82.3113 70.9924C82.6366 70.8481 83.0069 70.5826 83.3816 70.4034C83.8648 70.1761 84.3716 70.0369 84.8707 69.8571C85.3697 69.6772 85.7904 69.3089 86.2813 69.3975C88.6926 67.858 91.1682 66.9494 93.6225 65.8581C93.3025 66.3713 92.624 66.4101 92.0859 66.654C90.5743 67.3193 88.8236 68.2412 87.214 68.9838C87.2222 69.2656 87.8565 68.9635 88.1025 68.9738C88.2372 68.8462 88.3984 68.7499 88.5746 68.6919C88.7508 68.634 88.9377 68.6157 89.1218 68.6385C89.7622 68.3965 90.418 68.1975 91.0848 68.0429C90.9762 68.3247 90.1634 68.5346 89.7601 68.5734C89.3179 68.9927 88.8309 68.8662 88.3686 69.1932C85.4763 70.2995 82.6833 71.6496 80.0197 73.2289C80.0902 73.7271 80.5457 73.1331 80.8189 73.1521C81.0755 72.841 81.4103 72.9521 81.6656 72.6675C82.2827 72.4126 82.88 72.1121 83.4524 71.7685C86.9141 70.1832 90.5054 68.8976 94.1867 67.9258C94.2072 68.2179 93.5141 68.1827 93.2582 68.3429C92.9191 68.4829 92.5669 68.5887 92.2068 68.6587C91.5093 68.9707 90.8026 69.1856 90.0987 69.4303C90.7905 69.6089 91.412 69.0555 92.0925 69.1559C92.7113 68.946 93.3437 68.7782 93.9853 68.6538C93.9128 68.9585 93.5252 68.8864 93.2837 68.9624C92.535 69.2114 91.5055 69.559 90.6935 69.7765C89.5353 70.1968 88.4001 70.5809 87.2456 70.9217C84.9794 71.7349 82.7177 72.6343 80.4685 73.5853C80.3367 73.9786 80.985 74.2932 81.0583 74.6631C88.8461 84.9167 96.5103 95.1784 103.271 105.527C109.881 116.247 118.311 126.789 128.56 137.154C128.567 136.637 127.896 136.2 127.447 135.644C127.05 135.159 126.731 134.628 126.33 134.138C125.5 133.118 124.499 132.189 123.938 131.134C124.266 130.69 124.706 130.341 125.213 130.123C126.557 131.128 127.6 133.199 129.244 134.183C129.962 134.287 130.729 133.641 131.13 132.788C133.13 135.641 134.873 138.523 136.728 141.394C139.914 143.526 143.242 145.845 146.571 147.888C147.251 148.305 147.886 148.795 148.561 149.227C149.236 149.66 149.918 149.975 150.537 150.417C153.542 152.581 156.258 155.119 158.62 157.97C161.329 161.305 164.565 164.937 167.606 168.188C169.017 168.829 170.347 168.667 171.736 169.084C171.641 167.774 170.951 166.517 170.478 165.24C170.368 164.606 169.873 164.005 169.651 163.382C169.179 162.779 169.098 162.142 168.507 161.551C168.019 160.358 167.189 159.371 166.491 158.266C164.547 155.17 162.542 151.838 160.468 148.574C159.603 147.172 158.696 145.819 157.808 144.461C156.288 142.134 154.6 139.704 152.827 137.258C149.467 132.602 145.778 127.552 141.823 122.866C139.144 119.694 136.411 116.587 133.395 113.405C132.225 112.172 131.183 111.209 129.817 109.863C125.456 105.578 121.447 101.233 117.476 96.7339C117.301 97.0297 117.548 97.33 117.639 97.6115C117.721 97.9075 117.832 98.1947 117.97 98.4692C117.423 98.2621 116.96 97.8799 116.652 97.3821C116.379 97.7137 116.893 98.0073 116.741 98.3423C117.022 98.6431 116.862 98.9789 116.997 99.29C117.352 100.645 117.592 102.028 117.715 103.423C117.776 103.859 117.979 104.329 117.767 104.794C116.975 103.136 116.312 101.414 115.654 99.6603C115.252 97.9538 115.055 96.2164 114.754 94.489C114.546 94.3658 114.654 94.8679 114.639 94.9862C114.347 95.7832 114.573 96.6095 114.549 97.4221C114.55 97.5464 114.423 97.6415 114.423 97.7583C114.423 97.8751 114.449 98.3363 114.426 98.6475C114.41 98.8412 114.415 99.0104 114.397 99.2156C114.392 99.3216 114.279 99.4343 114.271 99.5518C114.264 99.6694 114.306 100.144 114.274 100.441C114.265 100.544 114.148 100.66 114.144 100.774C114.167 101.071 114.169 101.369 114.15 101.667C114.121 101.835 113.987 102.082 113.965 102.25C113.924 103.052 113.81 103.849 113.625 104.63C113.201 102.762 113.045 100.843 113.16 98.9312C112.902 98.9861 112.929 99.7034 112.696 100.027C112.623 99.4387 112.514 98.8551 112.37 98.2796C112.073 98.4061 112.139 98.7767 112.04 99.0388C111.734 99.8182 111.315 100.752 110.986 101.567C110.596 102.683 110.153 103.803 109.688 104.926C109.581 103.964 110.015 102.953 109.893 101.993C109.996 101.658 110.253 101.313 110.125 101.002C109.806 101.381 109.519 101.786 109.269 102.214C108.511 103.467 107.698 105.045 106.759 106.334C106.777 105.661 107.209 105.054 107.46 104.408C107.711 103.762 107.857 103.093 108.164 102.479C108.795 101.197 109.54 99.9346 110.305 98.6325C110.344 98.3348 110.282 98.043 110.299 97.7474C109.014 99.2464 107.583 101.457 106.216 103.231C106.777 101.517 107.573 99.8893 108.582 98.3947C107.616 98.9736 106.804 99.9336 105.899 100.755C104.994 101.577 104.062 102.349 103.213 103.12C104.639 101.004 106.296 99.054 108.153 97.3052C108.927 96.5676 109.889 95.793 110.836 94.9444C111.207 94.611 111.701 94.4957 111.939 93.7907C111.345 94.0011 110.775 94.2732 110.238 94.6024C108.827 96.2305 107.382 97.4321 105.958 98.8918C106.184 98.3148 106.485 97.7701 106.854 97.2717C106.374 97.4739 105.935 97.7626 105.56 98.1234C104.431 98.9668 103.131 99.9095 101.944 100.898C102.374 99.8767 103.513 99.2547 104.189 98.1759C103.145 98.6401 102.144 99.1953 101.198 99.8351C101.363 99.284 102.028 99.0205 102.461 98.6623C102.894 98.3041 103.32 97.7619 103.798 97.3994C104.701 96.7134 105.758 96.2651 106.543 95.681C106.274 95.556 105.925 95.7289 105.669 95.8478C105.413 95.9666 105.11 96.1842 104.826 96.3283C104.239 96.6085 103.676 96.9348 103.141 97.3042C102.012 97.6388 100.925 98.414 99.8128 98.8375C99.9899 98.5835 100.217 98.3681 100.479 98.2043C101.21 97.6517 102.215 96.9333 102.981 96.4301C104.071 95.7262 105.171 95.0928 106.263 94.4188C106.324 94.1869 106.132 94.4691 106.016 94.3596C104.136 94.8719 102.268 95.2021 100.394 95.6307C100.342 95.3192 100.995 95.2113 101.237 95.1428C101.2 94.8373 101.475 94.7958 101.672 94.6148C101.696 94.3864 101.093 94.742 100.873 94.6915C100.557 94.8161 100.237 94.8544 99.9255 94.9484C99.3125 95.0412 98.7122 95.227 98.1036 95.3646C98.3108 94.9715 99.229 94.9173 99.7186 94.482C100.303 94.25 100.871 93.9788 101.42 93.6704C102.613 93.4578 103.781 92.867 104.958 92.5994C105.076 92.2979 104.596 92.6379 104.46 92.4851C104.245 92.4385 104.021 92.4601 103.818 92.5468C102.526 92.4939 101.231 92.51 99.9406 92.5951C99.9585 92.2315 100.499 92.3681 100.799 92.2714C101.188 92.1662 101.492 91.99 101.818 91.9361C101.787 91.6489 101.11 91.778 100.839 91.8643C100.437 91.6014 100.092 91.936 99.707 91.811C98.9601 91.8827 98.1898 91.7494 97.4472 91.8659C97.2323 91.5511 97.6502 91.7032 97.7492 91.6749C98.8194 91.3778 99.9049 91.139 101.001 90.9593C102.214 90.7221 103.461 90.7871 104.668 90.4488C106.173 90.5887 107.688 90.5506 109.184 90.3354C107.97 90.1391 106.791 90.1091 105.601 90.0351C104.41 89.961 103.181 89.5664 102.014 89.7313C101.299 89.2723 100.472 89.3329 99.7781 89.2149C99.0542 89.104 98.3367 88.9553 97.6284 88.7693C100.061 88.5987 102.503 88.6301 104.93 88.8632C104.666 88.3496 103.758 88.467 103.22 87.893C102.496 87.6949 101.781 87.5451 101.056 87.2906C101.262 87.0409 101.556 87.5177 101.769 87.1429C100.531 86.4712 99.2588 85.8649 97.9573 85.3268C98.5747 85.3095 99.1893 85.4144 99.7659 85.6355C99.6328 85.1131 98.8427 84.9704 98.4637 84.7128C99.4602 84.6887 100.517 85.292 101.514 85.3094C100.83 84.6702 99.4448 83.9402 98.4855 83.2521C98.8174 83.0582 99.2145 83.5439 99.5507 83.3948C99.5532 82.9498 98.9237 82.9877 98.6707 82.669C99.4604 82.7288 100.172 83.158 101.097 83.4875C101.331 83.5705 101.598 83.5637 101.837 83.6576C102.907 84.0788 103.859 84.8504 104.968 85.0567C103.668 83.2971 101.544 81.545 100.172 79.7735C101.908 80.688 103.56 81.7539 105.11 82.9589C105.362 82.7198 104.972 82.5425 104.884 82.3323C104.576 82.1471 104.708 81.9195 104.344 81.7359C103.769 80.8489 103.049 79.9117 102.465 79.0105C102.306 78.762 101.9 78.4203 102.051 78.0778C103.695 79.5368 105.448 80.9891 106.841 82.4684C107.064 82.1229 106.627 81.8445 106.589 81.5241C106.299 80.8245 105.958 80.1788 105.656 79.4277C105.571 79.2134 105.312 78.9444 105.508 78.7144C105.974 79.3257 106.489 79.8977 107.048 80.4246C106.465 78.9466 106.155 77.4387 105.568 75.9574C106.286 76.2954 106.395 77.3893 107.135 77.9928C107.414 78.0716 107.088 77.2662 107.047 77.0327C106.975 76.8561 106.929 76.6701 106.911 76.4804C106.818 76.218 106.769 75.9513 106.673 75.6929C106.759 75.4133 106.357 75.1844 106.6 74.8896C107.164 75.9397 107.695 76.9968 108.275 78.0455C108.538 77.6433 108.203 77.2986 108.327 76.9059C108.172 76.7362 108.351 76.5268 108.191 76.3537C108.206 76.2354 108.247 75.7529 108.251 76.1068C108.785 76.1761 108.752 76.8916 108.926 77.2555C109.731 78.4973 110.085 79.7862 110.666 81.0495C110.951 80.8789 110.632 80.6156 110.605 80.4072C110.609 79.8405 110.527 79.2765 110.361 78.7345C110.406 77.4169 110.361 76.0978 110.227 74.7863C110.497 74.8093 110.562 75.2139 110.606 75.3944C110.649 75.5749 110.694 75.8797 110.757 76.111L110.998 76.8944C111.111 77.2022 111.194 77.5196 111.248 77.8428C111.267 78.003 111.442 78.4913 111.501 78.7872C111.517 78.8835 111.509 79.0276 111.531 79.1083C111.596 79.3546 111.776 79.5785 111.843 79.8058C111.91 80.033 111.859 80.3206 111.991 80.519C112.176 78.4773 112.215 76.4534 112.777 74.3793C113.07 75.3085 112.695 76.2716 113.125 77.1763C113.314 76.4705 113.462 75.754 113.567 75.0308C113.925 75.1886 113.513 76.1139 113.791 76.5432C113.797 76.3278 113.982 76.0952 113.891 75.8892C114.229 75.8039 114.022 76.2798 114.027 76.4415C114.031 76.6031 114.093 76.9024 114.088 77.0838C114.083 77.2652 113.926 77.5968 113.915 77.8279C113.903 78.0589 114.024 78.3035 113.976 78.4702C114.286 78.3538 114.137 77.5917 114.421 77.2139C114.695 79.9739 114.773 82.7499 114.654 85.521C114.922 84.8685 115.048 84.1664 115.025 83.4614C115.929 81.0981 116.647 78.7263 118.049 76.2172C118.181 76.6078 117.771 77.0542 117.922 77.4393C117.633 77.8477 117.728 78.2154 117.548 78.6096C118.395 78.0157 118.538 76.7921 119.311 75.9377C118.81 77.8714 118.181 79.7699 117.43 81.621C118.748 80.2393 119.331 78.7323 120.876 77.0839C120.404 78.3655 119.588 79.6875 118.986 80.9854C119.767 80.4128 120.506 79.4335 121.273 78.7455C119.388 82.1905 116.55 85.7233 114.915 89.1405C114.774 89.561 114.894 89.949 114.627 90.3817C115.329 90.6309 115.977 89.8035 116.387 89.3232C117.407 88.136 118.488 86.2833 119.759 84.8761C120.693 83.8651 121.682 82.9057 122.72 82.0024C122.992 81.7727 123.217 81.4835 123.458 81.2833C123.574 81.193 123.799 81.1864 123.924 81.0764C124.049 80.9664 124.142 80.754 124.286 80.6384C124.429 80.5229 124.755 80.0695 125.058 80.2439C124.587 80.9562 124.071 81.1905 123.594 81.8356C123.833 82.0877 124.014 81.7009 124.221 81.617C124.773 81.2059 125.325 80.7874 125.872 80.324C125.797 80.9494 125 81.2897 124.64 81.818C124.901 81.9851 125.225 81.6676 125.502 81.4902C125.779 81.3129 125.988 80.8594 126.274 81.0957C124.47 82.8331 122.662 84.4578 120.844 86.2455C121.698 85.8533 122.519 85.3951 123.302 84.875C124.14 84.6467 124.95 84.3249 125.716 83.9157C125.337 84.6418 124.445 84.931 123.755 85.4006C123.585 85.5149 123.396 85.7366 123.23 85.8543C122.695 86.1797 122.191 86.5537 121.724 86.9713C122.874 86.5443 124.039 86.3909 125.188 85.9904C124.965 86.4528 124.328 86.6571 123.823 86.928C123.354 87.2058 122.863 87.4422 122.353 87.6346C122.218 87.7983 122.744 87.8608 122.85 87.7489C122.594 88.061 122.252 88.2906 121.866 88.4088C120.909 88.8437 119.623 89.2687 118.59 89.6958C118.807 89.9576 119.689 90.0312 120.182 90.2665C120.475 90.57 119.718 90.5297 119.485 90.5785C119.089 90.6579 118.698 90.6993 118.451 90.757C117.764 90.8907 117.066 90.9578 116.367 90.9571C116.332 91.1488 116.545 91.3169 116.66 91.4943C116.285 91.5581 115.916 91.6489 115.555 91.7662C116.148 91.8022 116.743 91.74 117.316 91.582C119.16 91.2031 121.03 90.9681 122.91 90.8789C122.951 90.8787 123.11 90.7692 123.145 90.7772C123.919 90.9893 125.012 90.7901 125.898 90.8332C126.463 90.8656 127.058 91.0195 127.621 91.0784C128.204 91.051 128.786 91.1305 129.34 91.3129C125.943 91.8559 122.509 92.1328 119.07 92.141C119.184 92.4278 119.931 92.1638 120.307 92.4255C121.624 92.3216 123.018 93.1073 124.351 93.2506C125.116 93.6847 125.937 94.0141 126.789 94.23C126.803 94.6885 126.03 94.1334 125.755 94.4085C125.365 94.2597 124.942 94.217 124.53 94.285C124.416 94.5899 124.905 94.3884 125.058 94.7205C123.404 94.7323 121.716 94.1859 120.053 93.9838C120.53 94.4392 121.744 95.3365 122.509 96.0093C121.663 96.1508 120.731 95.464 119.871 95.4561C119.395 95.0156 118.978 95.1536 118.509 94.7804C118.311 95.1462 119.102 95.4207 119.169 95.7647C122.757 99.5283 125.656 102.634 129.647 106.325C130.818 107.408 131.783 108.397 133.115 109.625C134.095 110.53 134.935 111.588 135.899 112.513C136.559 113.147 137.29 113.811 137.952 114.502C138.354 114.923 138.657 115.406 139.049 115.847C139.912 116.82 140.902 117.712 141.747 118.664C142.592 119.615 143.435 120.654 144.3 121.656C155.07 134.156 163.5 147.766 171.566 160.526C171.843 160.424 171.301 159.488 171.267 159.096C171 158.586 171 158.044 170.631 157.54C170.681 156.996 170.14 156.509 170.16 155.968C168.495 152.25 166.515 148.622 164.563 144.86C163.232 142.304 161.906 139.842 160.35 137.259C159.91 136.525 159.224 135.423 158.632 134.515C158.587 134.478 158.541 134.158 158.515 134.123C158.425 134.007 158.243 133.953 158.163 133.832C157.852 133.376 157.69 132.905 157.382 132.452C157.075 132 156.622 131.564 156.284 131.099C151.697 124.861 146.365 118.593 141.038 112.185C141.524 111.596 141.997 111.022 142.536 110.91C144.722 113.146 146.738 115.489 148.779 117.834C152.804 122.452 156.835 126.987 160.223 131.693C161.885 134.014 163.321 136.409 164.769 138.689C164.961 139.199 165.198 139.691 165.476 140.159C165.546 140.307 165.675 140.509 165.769 140.696C165.919 141.006 166.303 141.632 166.549 142.076C167.098 143.079 167.795 144.252 168.4 145.377C168.593 145.735 168.726 146.175 168.919 146.541C169.02 146.727 169.273 146.888 169.369 147.063C169.555 147.388 169.638 147.746 169.888 148.227C170.479 149.402 171.283 150.829 171.875 152.08C172.583 153.572 173.165 155.035 173.837 156.497C173.877 157.115 174.291 157.697 174.41 158.304C174.67 158.897 174.789 159.511 174.986 160.107C175.794 162.513 176.16 164.954 177.292 167.318C177.566 165.969 177.164 164.688 177.153 163.366C176.947 162.741 177.143 162.078 176.812 161.462C176.79 160.651 176.657 159.847 176.417 159.072C176.312 158.566 176.242 158.075 176.102 157.486C175.963 156.896 175.931 156.451 175.788 155.899C175.758 155.785 175.702 155.594 175.671 155.507C175.445 154.88 175.25 153.983 175.048 153.219C175.015 153.192 175.122 153.004 175.107 152.972C175.093 152.939 174.945 152.886 174.931 152.827C174.842 152.485 174.845 152.006 174.734 151.632C174.69 151.493 174.644 151.524 174.629 151.401C174.497 150.814 174.334 150.235 174.141 149.665C174.026 149.359 173.941 149.043 173.889 148.721C173.789 148.267 173.665 147.82 173.515 147.381C173.219 146.671 172.987 145.937 172.822 145.186C172.805 145.048 172.717 144.921 172.701 144.791C172.685 144.66 172.6 144.529 172.584 144.399C172.568 144.268 172.268 143.781 172.17 143.466C172.072 143.151 172.097 142.979 172.023 142.753C171.316 140.733 170.498 138.689 169.656 136.675C168.534 133.816 167.288 131.015 165.923 128.135C165.439 127.103 164.881 126.003 164.409 124.967C164.337 124.812 164.31 124.886 164.303 124.729C164.159 124.439 163.997 124.159 163.819 123.889C162.981 122.187 162.068 120.175 161.02 118.335C160.893 118.114 160.702 117.887 160.551 117.653C159.986 116.671 159.315 115.34 158.681 114.191C154.854 107.225 150.499 100.297 145.915 93.3466C145.765 93.1198 145.604 92.8903 145.446 92.6642C145.385 92.5722 145.365 92.3291 145.329 92.2722C145.294 92.2153 145.057 92.1024 144.977 91.9819C144.673 91.5174 144.415 90.9956 144.111 90.5311C142.031 87.4406 139.573 84.1413 137.442 80.905C136.815 79.9476 136.147 79.0393 135.477 78.1012C134.806 77.1631 134.228 76.2801 133.602 75.3717C133.29 74.9154 132.818 74.4783 132.5 74.0227C132.455 73.9856 132.409 73.6658 132.383 73.6306C132.293 73.5149 132.11 73.4608 132.031 73.3403C131.986 73.3032 131.94 72.9834 131.91 72.9449C131.824 72.8325 131.641 72.7785 131.562 72.6579C131.181 72.1028 130.904 71.4962 130.5 70.9018C130.346 70.6716 130.182 70.4537 130.031 70.2194C129.574 69.5397 128.855 68.61 128.343 67.7886C127.974 67.2021 127.571 66.4644 127.093 65.7264C123.431 59.8518 120.016 53.6444 116.781 47.6345C116.699 48.2233 116.701 48.821 116.79 49.4089C116.798 49.5325 117.027 49.8384 116.75 49.816C116.065 49.128 115.575 48.4212 114.932 47.7255C114.755 47.0133 114.47 46.3327 114.086 45.7074C114.24 44.6863 113.96 43.7258 114.205 42.7035C113.904 42.3253 113.829 41.933 113.529 41.5548C108.798 45.0808 104.181 49.7456 99.5196 54.0715C98.3545 55.4008 99.8066 53.3316 100.171 53.2815C100.514 53.0828 99.942 52.9756 100.285 52.7844C104.148 47.7172 108.183 44.6349 112.226 41.5254C109.201 42.6074 106.311 45.0786 103.396 47.2279C103.631 46.5759 104.592 46.2123 105.091 45.5311C105.113 45.2803 104.52 45.6991 104.323 45.929C104.656 45.2752 105.388 45.0126 105.974 44.636C106.56 44.2594 107.138 43.9174 107.734 43.5774C108.95 42.8879 110.012 42.017 111.255 41.4604C111.531 41.1247 111.348 41.4891 111.588 41.5905C112.05 41.188 112.916 41.0973 113.113 40.6337C112.618 40.5418 112.216 41.27 111.718 41.2576C111.441 41.5933 111.62 41.2255 111.381 41.1242C110.724 41.5867 110.019 41.5489 109.404 42.4447C109.172 42.3351 109.42 42.1756 109.288 42.0526C105.318 43.67 101.474 45.5799 97.7871 47.7666C97.5861 47.9103 97.3608 47.8415 97.1756 48.1495C96.9527 48.2614 96.7357 48.0824 97.0896 48.0786C98.9269 46.6848 100.812 45.9082 102.665 44.7126C102.2 44.8222 101.755 45.0022 101.344 45.2465C99.0716 46.2988 96.8621 47.4826 94.7271 48.7917C94.6048 48.7733 94.397 48.9252 94.4803 48.7325C96.1189 47.8213 97.7346 46.6711 99.3922 45.9956C103.768 43.525 108.235 42.0444 112.629 39.7944C112.204 39.5677 112.04 39.6738 111.829 39.8712C111.748 39.7697 111.913 39.6446 111.795 39.5467C108.582 39.7723 105.409 40.4352 102.224 40.952C102.402 40.5204 103.309 40.471 103.784 40.3198C103.62 39.985 103.36 40.3342 103.142 40.3815C102.924 40.4288 102.593 40.3965 102.339 40.4549C101.993 40.5409 101.596 40.7297 101.163 40.8127C101.115 40.8211 100.946 40.7432 100.913 40.7576C100.035 41.1887 98.6092 41.2578 97.6095 41.7194C97.8744 41.2982 98.5342 41.3404 99.0911 41.1738C99.2268 41.1344 99.1789 41.0674 99.3263 41.0721C99.4738 41.0768 99.5873 40.9641 99.7218 40.9512C100.03 40.8451 100.346 40.7607 100.666 40.6984C101.7 40.3663 102.755 40.1038 103.824 39.9127C103.942 39.6037 103.463 39.9512 103.327 39.7984C101.87 40.0476 100.408 40.2446 98.9435 40.4606C97.2694 40.6892 95.5898 40.8996 93.9174 41.1846C94.002 41.0068 94.2965 40.9333 94.4546 40.8918C94.6127 40.8502 94.9391 40.7962 95.1712 40.74C95.7466 40.6094 96.3012 40.5372 96.9188 40.4139L97.6279 40.2628C97.8573 40.2182 98.0398 40.1554 98.3445 40.1111C98.6493 40.0667 98.9318 39.9077 99.293 39.8617C97.9094 39.5046 96.6191 40.1185 95.2704 40.086C93.9564 40.4534 92.6001 40.3801 91.2938 40.7883C91.3846 40.4781 91.9548 40.5288 92.309 40.4496C92.6632 40.3703 93.1464 40.143 93.5077 40.2553C94.1065 40.0424 94.7271 39.8968 95.3581 39.8213C95.9491 39.6967 96.5103 39.5749 97.1057 39.4951C98.3114 39.3823 99.5078 39.1855 100.686 38.9062C103.868 38.6509 107.05 38.3729 110.232 38.0723C108.587 37.6989 106.924 38.047 105.309 38.1382C104.877 38.1607 104.443 38.0705 104.012 38.1006C102.896 38.1701 101.633 38.4082 100.416 38.5252C97.1818 38.8358 93.932 38.9821 90.7249 39.5351C90.8206 39.1189 91.8608 39.2752 92.3116 39.2206C92.8409 38.8457 93.4425 39.1836 93.9692 38.8202C97.3857 38.4468 100.8 38.0925 104.232 37.8345C104.133 37.6367 103.789 37.6962 103.484 37.6651C102.524 37.5613 101.043 37.5152 99.983 37.4323C100.11 37.1449 100.749 37.2796 101.182 37.238C101.615 37.1964 102.089 37.0303 102.459 37.1153C102.981 36.8579 103.156 36.9127 103.553 36.6899C104.763 36.8903 106.021 36.8071 107.214 36.9036C108.425 37.0735 109.648 37.1439 110.871 37.1139C110.408 36.5253 109.332 36.7868 108.625 36.444C107.906 36.4283 107.191 36.3326 106.494 36.1586C105.493 36.0211 104.472 35.9421 103.389 35.8124C103.244 35.7961 103.044 35.7136 102.892 35.6981C102.573 35.6684 102.277 35.6102 101.823 35.5595C101.64 35.5394 101.525 35.6296 101.345 35.6054C101.024 35.5608 100.674 35.4098 100.351 35.3768C100.027 35.3438 99.6311 35.4158 99.3049 35.3943C99.1112 35.379 98.9121 35.2285 98.7217 35.2091C98.5314 35.1897 98.3919 35.2672 98.2363 35.2558L96.1999 35.0481C94.8378 34.9151 93.4841 34.672 92.1157 34.63C91.9272 34.4333 92.4097 34.4736 92.5077 34.5132C92.6974 34.4929 92.8891 34.5025 93.0758 34.5416C93.4294 34.6131 93.7859 34.4394 94.1403 34.6768C95.2256 34.6671 96.3104 34.7278 97.3878 34.8586C98.4837 34.8962 99.5758 35.0066 100.657 35.1891C102.107 35.2673 103.552 35.4255 104.984 35.6629C105.737 35.7753 106.485 35.9033 107.204 36.0151C107.901 36.1821 108.614 36.2766 109.33 36.2971C108.338 35.7328 107.388 35.6507 106.368 34.8855C100.991 33.3328 95.5669 31.4793 90.1746 29.6454C91.2613 29.7371 92.388 30.2055 93.4713 30.3012C93.5276 30.1413 92.9037 29.9637 92.7122 29.9708C92.3825 29.7952 92.8493 29.5544 92.431 29.5945C91.7032 29.2762 90.9902 29.1902 90.2546 28.8312C91.8288 29.1965 93.3835 29.6409 94.9128 30.1627C95.2403 30.4328 95.193 29.823 95.3758 29.96C96.2278 30.1194 97.0956 30.4431 97.9476 30.6024C96.7232 29.3519 94.8732 28.9266 93.428 28.2023C93.6919 28.1242 93.9994 28.3434 94.2621 28.45C94.9168 28.4479 95.5651 28.578 96.1683 28.8323C96.8058 29.0349 97.4453 29.3353 98.0978 29.5365C98.4244 29.6408 98.7838 29.6553 99.0921 29.7651C100.018 30.1096 100.99 30.608 101.953 30.9489C101.015 29.1846 99.0706 28.2068 97.1234 26.9654C95.3609 25.8419 93.7632 24.7855 91.9281 23.4165C93.4228 24.1059 94.9142 24.9577 96.4477 25.8167C97.9813 26.6757 99.4248 27.7356 100.978 28.3703C99.91 27.4892 98.6141 26.4755 97.302 25.4897C95.3442 24.0194 93.3341 22.4372 91.7012 21.0149C93.8578 22.1608 96.0589 23.7698 98.2196 24.9191C96.4332 22.9575 93.8591 21.0752 91.9199 19.132C93.0178 19.6937 93.6913 20.5448 94.7011 21.13C94.6671 20.9724 94.6001 20.8237 94.5044 20.6939C94.4088 20.5641 94.2867 20.456 94.1463 20.3768C94.6505 20.571 95.1157 20.8544 95.5194 21.2135C95.6022 20.938 95.1418 20.6957 94.9605 20.4568C94.7793 20.218 94.4487 19.9934 94.6527 19.7628L98.3365 22.801C98.5318 22.3225 97.9353 21.9199 97.6451 21.488C97.5893 21.0637 97.0405 20.6867 96.8801 20.2725C97.9576 20.8173 99.101 22.0492 100.204 22.8628C99.9731 22.3045 99.6496 21.789 99.2475 21.3379C98.4078 19.8544 97.6237 18.3618 96.7216 16.8956C99.2019 18.7831 101.249 21.4133 103.434 23.6079C103.603 23.1281 103.205 22.6764 103.061 22.2681C103.034 22.184 103.056 22.0236 103.03 21.947C102.577 20.8231 102.197 19.6711 101.892 18.4983C101.191 16.8471 100.876 15.1435 100.114 13.4905C100.514 13.2147 100.438 13.8741 100.819 14.0712C102.152 16.1819 103.687 18.2732 104.904 20.3913C105.083 20.1743 104.963 19.9861 105.266 19.9533C105.044 19.771 105.103 19.592 105.13 19.401C105.067 19.0254 104.977 18.6549 104.861 18.2923C104.88 17.9156 104.843 17.5382 104.753 17.172C104.71 16.8332 104.502 16.4348 104.751 16.2827C105.089 16.8157 105.311 17.3634 105.633 17.8978C105.844 17.5007 105.541 17.134 105.526 16.7774C105.526 16.078 105.459 15.3801 105.326 14.6936C105.523 14.3203 105.023 14.0178 105.307 13.64C105.647 14.2296 105.923 14.8538 106.131 15.502C106.397 15.3294 106.15 14.8782 106.113 14.4559C106.022 13.4244 106.009 12.0801 105.861 11.0014C106.232 11.1014 106.172 11.616 106.274 11.934C106.305 12.0215 106.44 12.1254 106.465 12.2361C106.491 12.3466 106.39 12.428 106.406 12.483C106.465 12.662 106.642 12.8221 106.703 13.0236C106.731 13.1226 106.692 13.2206 106.734 13.3447C106.959 13.9577 107.128 14.5899 107.239 15.2334C107.859 16.6589 107.966 18.1298 108.541 19.5596C108.819 18.6961 108.269 17.9122 108.545 17.0528C108.399 16.2504 108.32 15.4374 108.308 14.622C108.279 12.989 108.327 11.3299 108.242 9.69853C108.531 9.57274 108.279 10.1698 108.464 10.3217C108.355 10.6035 108.541 10.8532 108.541 11.1284C108.66 11.6525 108.711 12.1896 108.695 12.7267C109.077 13.7302 108.876 14.8161 109.238 15.8292C109.377 14.7208 109.458 13.6059 109.482 12.489C109.914 12.6662 109.704 13.229 109.751 13.5977C109.878 14.686 110.146 16.0284 110.336 17.1823C110.351 14.7687 110.377 12.3377 110.416 9.88921C110.759 9.8073 110.443 10.1316 110.447 10.2104C110.451 10.2892 110.553 10.3321 110.552 10.4415C110.548 10.6718 110.631 11.0708 110.644 11.405C110.649 11.5741 110.52 11.7147 110.53 11.9022C110.551 12.2017 110.696 12.7267 110.567 13.1085C110.822 14.1921 110.564 15.3211 110.8 16.4028C110.805 18.6146 110.938 20.8143 111.11 23.0063C111.443 21.3273 111.451 19.6833 111.683 18.0178C111.888 16.743 112.193 15.5567 112.453 14.2239C112.53 13.8132 112.476 13.3623 112.737 12.9792C112.667 13.3138 112.896 13.6197 112.669 13.9619C112.804 14.1147 112.92 14.0245 112.829 13.9427C113.068 13.9537 112.901 14.6896 112.851 14.9922C112.677 16.1697 112.706 17.3278 112.618 18.4933C112.88 18.8615 113.034 19.2959 113.063 19.7471C113.333 19.5854 113.279 18.7841 113.335 18.3416C113.357 18.1472 113.419 18.0055 113.446 17.8485C113.653 16.5547 113.964 15.1604 114.271 13.8043C114.505 13.1654 114.659 12.4999 114.729 11.8231C115.027 11.67 114.769 12.2413 114.865 12.3753C114.679 12.6005 114.771 12.814 114.765 13.0294C114.317 14.4066 114.318 15.7143 113.94 17.0736C114.47 16.7475 114.379 15.7915 114.73 15.215C114.875 14.5308 115.082 13.8613 115.349 13.2146C115.183 14.6325 114.91 16.0646 114.625 17.494C115.05 17.2045 115.024 16.2685 115.348 15.7247C115.477 16.3606 115.154 17.0361 115.212 17.6751C115.442 17.6454 115.552 16.9451 115.605 16.665C116.142 15.5128 116.283 14.3912 116.809 13.2363C116.257 16.2819 115.485 19.3448 115.02 22.3859C115.303 22.3511 115.241 21.6674 115.569 21.3607C115.972 20.2429 116.433 19.1469 116.95 18.0772C116.752 19.8187 116.303 21.5879 116.001 23.3394C116.239 23.275 116.203 22.977 116.276 22.8306C117.53 20.117 118.683 16.8178 120.356 13.9472C119.189 16.9388 117.923 19.9663 116.764 22.9721C115.594 25.8297 114.726 28.802 114.175 31.8404C114.4 31.5673 114.563 31.2481 114.651 30.9053C114.992 29.983 115.334 28.842 115.658 27.8988C116.378 26.5495 117.028 25.1637 117.604 23.747C118.589 22.3333 119.5 20.8695 120.334 19.3616C120.093 20.587 119.405 21.6971 118.898 22.8953C118.391 24.0935 118.022 25.3162 117.454 26.4298C118.306 25.4887 118.861 24.1992 119.552 22.9946C120.243 21.79 120.928 20.6425 121.563 19.4885C122.05 19.5322 121.433 20.0136 121.445 19.9823C119.894 23.0221 117.657 26.5762 116.306 29.6156C116.171 30.317 115.994 31.0098 115.778 31.6902C116.741 30.8477 117.114 29.4022 117.945 28.1616C118.73 27.0007 119.745 25.9046 120.61 24.7548C121.021 24.2065 121.281 23.4994 121.913 23.1748L123.507 21.2428C123.611 21.1159 123.713 20.9931 123.812 21.0476L123.593 21.3137C122.33 22.6109 121.473 24.1179 120.437 25.4988C119.01 27.2689 117.776 29.1866 116.757 31.2192C117.6 30.3807 118.1 29.1907 118.881 28.1018C120.879 25.3132 123.412 22.6088 125.564 20.1821L125.855 19.8301C126.011 19.7321 125.945 19.9043 125.87 19.9869C123.898 22.3773 122.57 24.2047 120.756 26.5461C120.316 27.4836 119.747 28.3542 119.063 29.1321C120.256 28.5201 121.321 26.8197 122.488 26.0557C122.166 26.9384 121.115 27.4614 120.533 28.4256C120.758 28.6113 121.208 28.1083 121.372 27.9417C122.257 27.069 123.154 25.9313 124.088 25.0163C125.021 24.1012 125.973 23.3729 126.755 22.4912C125.41 24.2976 123.545 26.0333 121.858 27.8951C119.404 30.6032 116.866 33.2553 115.527 36.1052C115.926 36.2967 116.222 35.4957 116.571 35.1984C120.399 31.1285 124.458 27.2818 128.727 23.6774C127.732 25.0167 126.311 25.9146 124.945 27.1953L122.333 29.6284C119.993 31.8244 117.429 34.5242 114.962 37.1318C115.245 36.9802 115.572 37.2843 115.824 36.804C118.605 33.578 121.853 30.7862 125.461 28.5214C125.124 29.1305 124.282 29.4751 123.661 29.9871C123.039 30.4991 122.429 31.1306 121.801 31.6997C124.35 29.8681 126.906 28.1112 129.459 26.3585C129.077 26.8525 128.591 27.2568 128.035 27.543C126.581 28.5307 124.81 29.7863 123.256 30.8363C121.309 32.463 118.913 34.0839 116.973 36.1284C116.787 36.3535 116.568 36.6196 116.392 36.8324C115.899 37.3471 115.059 37.9404 114.944 38.5884C115.312 38.7679 115.595 38.0661 115.947 38.0887C116.815 37.1122 118.102 36.6267 118.704 35.6379C120.235 34.6165 121.633 33.5551 123.104 32.6298C125.404 31.184 127.999 29.7136 130.447 28.2046C129.998 29.0241 129.11 29.3092 128.251 29.7912C127.879 30.0003 127.433 30.3748 126.887 30.7288C126.241 31.1451 125.54 31.4612 124.895 31.8925C124.725 32.0068 124.54 32.2319 124.37 32.3462C121.206 34.3233 118.175 36.5055 115.296 38.8787C116.798 38.2258 118.237 37.4378 119.596 36.5247C123.684 34.0005 127.923 31.7293 132.289 29.7237C132.387 29.8047 132.264 29.8543 132.215 29.8138C130.934 30.5322 129.647 31.1346 128.361 31.8007C126.044 33.1841 123.692 34.2769 121.387 35.7873C123.71 34.8696 126.098 34.1262 128.531 33.5634C128.307 33.9769 127.765 33.9498 127.37 34.0782C124.389 35.058 121.125 36.3477 118.086 37.6383C117.312 38.2856 116.511 38.664 115.745 39.4009C116.192 39.6934 116.59 39.2104 117.015 39.1206C123.005 36.4197 128.998 33.9558 135.101 32.5932C135.295 32.8836 134.788 32.5554 134.721 32.8709C134.544 32.6768 134.417 33.0471 134.243 32.9168C132.015 33.5831 129.79 34.2792 127.577 35.0948C125.049 36.001 122.55 37.0211 120.01 38.0076C120.206 38.2864 120.368 37.9317 120.562 37.8716C120.756 37.8115 120.88 37.8863 121.048 37.825C121.375 37.7031 121.712 37.4446 122.051 37.3253C124.06 36.6232 126.111 36.0473 128.191 35.6011C128.389 35.895 127.883 35.5667 127.815 35.8823C125.034 36.5359 122.305 37.3926 119.649 38.4455C119.46 38.2488 119.944 38.2966 120.029 38.1678C119.698 37.8943 119.463 38.437 119.152 38.3312C119.083 38.481 119.307 38.4595 119.402 38.3863C119.483 38.7555 118.839 38.6514 118.614 38.624C118.329 38.7118 118.051 38.9571 117.76 38.9511C117.815 39.1267 118.375 39.039 118.735 39.0195C119.095 39 119.53 38.815 119.856 38.9119C122.43 38.0035 125.061 37.2648 127.731 36.7006C128.214 36.5827 128.717 36.4402 129.228 36.3119C129.401 36.2689 129.543 36.1384 129.694 36.105C129.846 36.0716 130.089 36.1689 130.266 36.1293C130.443 36.0897 130.559 35.9654 130.729 35.9265C131.035 35.8557 131.345 35.7467 131.677 35.6697C131.847 35.6382 132.078 35.7328 132.245 35.698C132.411 35.6632 132.533 35.5233 132.711 35.4912C133.011 35.436 133.364 35.4586 133.674 35.3986C134.348 35.2661 134.982 35.0394 135.653 34.9674C135.866 35.2258 135.407 34.991 135.347 35.155C135.275 35.198 135.195 35.2247 135.112 35.2334C135.029 35.242 134.945 35.2323 134.866 35.205C133.99 35.5079 133.096 35.7562 132.19 35.9483C131.008 36.239 129.832 36.6308 128.64 36.8583C126.254 37.5587 123.853 38.0682 121.461 38.7576C121.908 38.9063 122.384 38.9447 122.848 38.8695C123.587 39.2658 124.29 39.2887 125.024 39.6328C123.799 39.7844 122.563 39.6657 121.323 39.8262C120.704 39.7867 120.082 39.8186 119.47 39.9213C118.838 39.7784 118.247 40.0613 117.606 39.8554C117.127 40.0791 116.63 40.263 116.121 40.405C116.359 41.2 117.657 41.4862 118.359 41.8107C118.803 42.3898 119.287 42.9365 119.809 43.4467C119.744 43.7506 120.13 44.0075 120.137 44.3084C120.262 44.5904 120.645 44.8513 120.46 45.1668C119.747 44.7302 119.058 44.6155 118.343 44.1566C118.036 44.529 118.734 44.8162 118.682 45.1718C118.916 45.4683 119.086 45.81 119.181 46.1753C120.4 48.0332 121.386 50.0567 122.493 52.0082C123.6 53.9597 124.725 55.8229 125.875 57.7477C127.024 59.6725 128.104 61.6493 129.338 63.5546C135.46 73.1014 143.029 82.4111 149.471 92.1118C152 95.9168 154.418 99.7889 156.803 103.619C163.688 114.736 169.602 126.426 174.477 138.56C174.965 139.911 175.375 141.274 175.998 142.62C176.166 143.35 176.367 144.148 176.62 144.9C176.873 145.653 177.263 146.806 177.539 147.722C178.079 149.611 178.584 151.458 179.052 153.392C179.162 153.868 179.234 154.422 179.363 154.983C179.423 155.252 179.56 155.578 179.616 155.927C179.638 156.034 179.627 156.156 179.647 156.248C179.705 156.503 179.834 156.856 179.9 157.193C179.921 157.3 179.91 157.421 179.931 157.514C179.951 157.606 180.096 157.705 180.118 157.82C180.202 158.219 180.165 158.697 180.245 159.1C180.288 159.315 180.42 159.506 180.464 159.728C180.673 160.65 180.856 161.853 181.093 162.901C181.78 165.586 182.389 168.275 183.326 170.933C184.787 171.663 186.437 172.164 188.178 173.456C189.868 174.746 191.461 176.159 192.945 177.683C192.413 179.995 190.535 182.414 188.785 184.878C186.848 187.555 184.773 190.129 182.569 192.591C182.122 193.082 181.616 193.462 181.16 193.939C179.583 195.602 178.059 197.241 176.368 197.958C173.874 196.263 171.566 194.309 169.484 192.129C168.78 190.689 167.613 189.293 166.973 187.843C161.572 185.452 156.315 184.555 150.952 182.753C145.624 181.157 140.335 179.973 134.827 176.537C134.702 176.534 134.583 176.486 134.49 176.404C133.05 176.124 131.659 175.85 130.129 175.613C130.04 175.595 129.902 175.488 129.796 175.483C129.69 175.478 129.607 175.595 129.56 175.584C129.158 175.514 128.738 175.381 128.323 175.3C127.356 175.114 126.266 174.91 125.273 174.703C125.074 174.662 124.875 174.553 124.686 174.515C123.867 174.349 123.052 174.295 122.22 174.104C121.387 173.912 120.609 173.655 119.812 173.445C118.205 173.034 116.538 172.712 114.923 172.219C114.084 171.968 113.258 171.602 112.41 171.33C112.13 171.236 111.779 171.194 111.416 171.101C111.052 171.008 110.494 170.684 109.987 170.507C109.749 170.428 109.563 170.495 109.329 170.412C108.743 170.197 108.123 169.857 107.474 169.618C103.775 168.266 99.6257 166.542 95.7018 164.929C92.264 163.51 88.6006 161.823 85.0801 160.447C80.921 158.818 76.789 157.157 72.6188 155.334C72.0054 155.069 71.3601 154.826 70.7677 154.543C69.7769 154.077 68.6694 153.652 67.637 153.144C67.1943 152.93 66.7809 152.59 66.3498 152.378C65.9187 152.167 65.5526 152.044 65.1678 151.844C61.7024 150.098 58.3739 148.093 55.2108 145.846C54.8388 146.447 55.2138 146.977 54.973 147.569C55.1207 149.224 54.8814 150.932 54.9645 152.582C54.7819 152.604 54.7637 152.1 54.7268 151.795C54.6734 150.856 54.5572 149.921 54.379 148.998C54.4852 147.732 54.3895 146.458 54.0955 145.222L53.3055 144.571C52.6895 145.926 52.9134 147.198 52.3903 148.541C52.388 149.811 51.9483 151.12 51.8746 152.393C51.5108 152.451 51.938 151.758 51.7078 151.52C51.8744 150.48 51.975 149.43 52.0091 148.377C52.2852 146.975 52.2775 145.6 52.6549 144.192L51.7748 143.466C50.3939 145.766 50.215 147.984 49.433 150.242C49.3471 149.387 49.6986 148.494 49.6683 147.63C49.3982 147.799 49.3993 148.165 49.2671 148.475C48.8824 149.375 48.4367 150.424 48.0874 151.34C48.5097 149.184 49.1173 147.069 49.9037 145.018C50.1859 144.341 50.4162 143.644 50.5928 142.932C50.1777 142.926 50.2902 143.549 49.867 143.812C49.8369 143.381 50.3263 142.904 50.2291 142.48C49.6412 142.835 49.6537 143.828 49.0394 144.457C48.2084 146.557 47.15 148.682 46.1737 150.8C46.8604 148.193 47.8094 145.662 49.0061 143.246C47.631 144.43 46.8605 146.256 45.6341 147.693C46.2802 145.826 47.5387 143.9 48.5656 141.996C47.681 142.91 46.939 144.21 46.0571 145.387C45.0322 146.764 43.9129 148.137 42.9721 149.487C44.2893 146.843 45.7623 144.28 47.3833 141.811L48.1091 140.931C47.6504 140.354 47.3106 140.741 46.7577 141.144C45.5638 142.016 43.9948 144.086 42.7242 145.493C42.9006 144.936 43.2138 144.433 43.6352 144.03C43.0193 144.209 42.7259 144.765 42.2862 145.132C41.8235 145.418 41.3957 145.758 41.0115 146.143C40.6607 146.777 40.3975 147.455 40.229 148.16L39.7326 149.662C39.3156 150.893 38.8555 152.577 38.2801 153.925C38.7993 151.531 39.4638 149.172 40.2699 146.859C40.1676 146.775 40.0612 146.962 39.9645 147.054C39.5552 146.717 40.2208 146.819 40.31 146.452C40.7387 145.631 41.0626 144.759 41.2743 143.857C40.6256 144.01 40.5746 144.655 40.3475 145.156C39.6581 146.65 39.0191 148.434 38.3027 149.962C38.6018 148.248 39.6734 146.457 40.0968 144.743C39.8857 144.507 39.7714 145.279 39.5562 145.039C38.3558 147.179 37.2105 149.46 36.1491 151.672C35.9831 152.024 35.8446 152.425 35.6853 152.768C35.5586 153.091 35.366 153.385 35.1197 153.629C36.6784 149.803 38.5431 146.108 40.6958 142.582C40.4743 142.434 40.1108 142.691 39.9083 142.82C39.7059 142.948 39.5706 143.071 39.5279 143.097C39.0087 143.46 38.2737 144.126 37.6417 144.492C36.1216 146.794 34.2619 149.132 33.1301 151.397C33.0162 151.035 33.3554 150.682 33.5156 150.387C34.0615 149.4 34.9196 148.21 35.7731 146.933C36.0698 146.49 36.305 145.996 36.6139 145.563C36.7859 145.313 37.0315 145.124 37.1946 144.859C37.6823 144.051 37.9901 143.136 38.4911 142.387C38.8495 141.991 39.1606 141.555 39.4178 141.088C39.0186 141.13 38.6375 141.4 38.2383 141.442C35.8222 143.769 33.5446 146.235 31.4174 148.829C31.1136 149.08 30.8568 149.742 30.5306 149.721L31.3273 148.755C32.9848 146.745 35.2102 143.78 37.1702 142.212C37.278 142.04 37.6208 141.841 37.2845 141.715C37.987 141.455 38.6393 140.673 39.3159 140.144C38.7114 139.893 38.1706 140.699 37.4848 141.289C37.2379 141.504 36.9413 141.948 36.6422 141.777C37.0598 141.612 37.4217 140.906 37.831 140.694C37.4994 140.42 37.2651 140.963 36.9609 140.856C36.6956 140.92 36.4518 141.207 36.1734 141.094C35.3996 141.749 34.6386 142.538 33.8209 142.696C33.6429 142.845 33.5947 142.97 33.7767 143.1C33.3095 143.159 32.8751 143.371 32.542 143.704C31.3826 144.543 30.2625 145.634 29.1025 146.624C29.4792 145.759 30.3517 145.268 31.0171 144.661C31.6824 144.054 32.3221 143.337 33.0176 142.769C33.3572 142.499 33.7474 142.284 34.0803 142.023C35.0235 141.199 36.032 140.453 37.0961 139.792C37.2384 139.469 36.7963 139.889 36.6732 139.588C37.3753 139.208 38.0992 138.871 38.8412 138.577C38.9347 138.255 38.4263 138.613 38.2731 138.548C38.0875 138.773 37.8562 138.72 37.6459 138.767C37.2507 138.97 36.8306 139.121 36.3961 139.215C33.7404 140.28 31.1837 141.577 28.7557 143.092C29.2191 142.305 30.4073 141.923 31.1483 141.083C28.7147 142.233 26.3391 143.712 23.9321 145.021C24.2165 144.568 24.7567 144.463 25.226 144.17C26.648 143.279 28.1353 142.126 29.5781 141.569C31.4963 140.194 33.4763 139.461 35.4234 138.426C35.3612 138.093 34.697 138.515 34.3732 138.44C34.0087 138.546 33.6277 138.584 33.2495 138.552C29.8612 139.925 26.4419 141.094 23.043 142.514C23.2917 142.245 23.6068 142.047 23.9565 141.94C25.0084 141.462 26.0355 140.932 27.0339 140.351C28.4548 139.88 29.8329 139.289 31.1532 138.584C31.322 138.379 30.8847 138.417 30.8321 138.615C30.7637 138.583 30.6861 138.577 30.6138 138.598C30.5415 138.62 30.4797 138.667 30.44 138.731C30.1267 138.569 29.8765 139.064 29.5665 138.898C27.9066 139.627 26.2295 140.059 24.5738 140.833C24.7056 140.439 25.2443 140.437 25.6516 140.243C26.0469 140.01 26.4597 139.807 26.8863 139.638C29.3262 138.397 31.8205 137.683 34.2932 136.744C34.3583 136.44 33.8159 136.798 33.6318 136.646C33.4243 136.998 33.1418 136.606 32.9343 136.958C31.4668 137.208 30.0137 137.536 28.5814 137.941C26.619 138.386 24.6829 138.907 22.7469 139.47C22.8272 139.089 23.6515 139.274 23.989 138.865C24.4527 138.821 24.9051 138.696 25.3254 138.495C26.231 138.231 27.1062 138.004 28.0016 137.752C29.779 137.265 31.5833 136.862 33.3732 136.426C32.9183 136.357 32.4547 136.374 32.0059 136.474C31.765 136.516 31.5303 136.584 31.2893 136.626C30.3031 136.796 29.0495 136.89 27.9399 137.11C26.1642 137.378 24.3798 137.557 22.5934 137.872C22.643 137.603 22.9482 137.642 23.1306 137.579C23.7179 137.376 24.4309 137.187 25.0977 136.987C25.9364 136.664 26.8112 136.443 27.703 136.33C28.3441 136.112 29.008 135.967 29.6817 135.898C29.7889 135.877 29.9106 135.888 30.0029 135.868C30.0951 135.847 30.1976 135.698 30.3123 135.676C30.427 135.653 30.6055 135.746 30.7195 135.716C30.8334 135.686 30.8993 135.548 31.0215 135.525C31.5706 135.434 32.2926 135.418 32.9485 135.34C32.6692 135.094 32.3109 134.957 31.9391 134.954C30.9793 134.85 29.722 135.141 28.488 135.203C28.1769 135.221 27.9105 135.194 27.5953 135.209C26.8367 135.237 25.9647 135.302 25.1044 135.369C24.244 135.437 22.8703 135.418 21.7241 135.532C21.4355 135.605 21.1424 135.66 20.8466 135.695C20.5274 135.707 20.2836 135.603 20.0357 135.611C19.7878 135.62 18.6645 135.815 19.3934 135.673C19.5283 135.65 19.6599 135.61 19.7855 135.556C20.3731 135.552 20.9622 135.447 21.5481 135.387C22.1341 135.327 22.6654 135.208 23.2208 135.143C24.3431 135.017 25.4806 135.088 26.6044 134.977C27.7281 134.865 28.8372 134.679 29.9695 134.657C31.0988 134.689 32.2288 134.635 33.3497 134.495C30.9414 134.381 28.5418 134.124 26.1639 133.726C23.7964 133.249 21.3896 132.993 18.9747 132.962C18.9186 132.613 19.6153 132.961 19.8482 132.795C20.2073 132.885 20.5418 132.679 20.8976 132.773C21.916 132.781 22.9282 132.646 23.9567 132.642C24.9807 132.726 26.0095 132.735 27.0349 132.67C24.6006 132.361 22.1508 131.813 19.733 131.517C19.844 131.182 20.2869 131.437 20.5321 131.44C21.3209 131.451 22.4385 131.472 23.2892 131.5C23.3339 131.22 22.7467 131.424 22.53 131.169C23.2565 131.081 24.0461 131.257 24.7899 131.114C22.8656 130.504 20.9386 129.747 19.0356 129.319C18.9764 128.899 19.6681 129.194 19.9249 129.316C20.8857 129.235 21.9009 129.681 22.8579 129.521C21.6832 129.102 20.5244 128.848 19.3509 128.403C21.7555 128.852 24.1331 129.435 26.4725 130.15C25.8558 129.38 24.6043 129.221 23.7372 128.63C24.6701 128.533 25.6489 128.914 26.596 128.924C26.1229 128.583 25.6072 128.306 25.0619 128.099C23.5729 127.311 21.7281 126.038 20.0893 125.181C20.0932 124.751 20.6479 125.229 20.9936 125.336C21.5875 125.516 22.2434 125.713 22.9939 125.954C24.7299 126.483 26.4373 127.101 28.1093 127.807C27.19 126.712 25.5828 125.675 24.4021 124.605C25.6942 124.873 27.0387 125.686 28.332 125.927C27.3669 124.788 26.3439 123.698 25.2672 122.664C25.5148 122.455 25.8116 122.838 26.1006 122.904C25.8936 122.529 25.6147 122.198 25.2798 121.931C25.6574 121.782 26.0346 122.217 26.3718 122.392C26.772 122.54 27.1468 122.749 27.483 123.012C26.769 121.818 25.5207 120.672 24.4774 119.502C24.916 119.32 25.2088 119.858 25.5026 120.052C26.2864 120.561 28.2101 121.597 29.1288 122.451C29.6363 122.86 30.1858 123.214 30.768 123.507C32.4728 124.776 34.0041 126.396 35.512 127.42C35.7537 126.993 35.1324 126.646 35.1501 126.241C34.6469 124.905 34.0374 123.611 33.3274 122.372C32.6742 121.104 32.1042 119.761 31.4973 118.504C31.9263 118.575 32.077 119.36 32.5801 119.692C32.8885 119.569 32.4641 119.191 32.3424 118.905C32.2487 118.576 32.1094 118.262 31.9287 117.972C32.2426 117.984 32.2822 118.436 32.4016 118.658C32.8693 119.449 33.2726 120.276 33.6078 121.131C34.1881 121.822 34.7181 122.553 35.1936 123.32C35.4208 122.977 34.9791 122.696 34.9408 122.375C34.7519 122.096 34.8136 121.796 34.4529 121.533C34.2449 120.921 33.9986 120.323 33.7155 119.742C32.9422 118.361 32.5049 116.948 31.8586 115.556C31.7604 115.474 31.8838 115.425 31.9329 115.465C32.8351 117.482 33.8684 119.489 34.774 121.502C35.0202 121.554 34.8317 120.965 34.7866 120.769C34.6752 120.513 34.7357 120.239 34.5496 119.989C34.5442 119.947 34.5475 119.904 34.5594 119.863C34.5713 119.822 34.5914 119.784 34.6186 119.751C34.6458 119.718 34.6795 119.691 34.7176 119.671C34.7556 119.652 34.7973 119.64 34.8399 119.637C34.6161 119.308 34.7209 118.948 34.4971 118.619C34.653 118.28 34.1516 118.004 34.4046 117.655C34.4984 117.808 34.5176 117.969 34.6114 118.122C34.8727 117.938 34.5916 117.562 34.538 117.318C34.3558 116.48 34.1344 115.431 33.8657 114.556C34.2594 114.771 34.2231 115.374 34.3996 115.877C34.4741 116.103 34.6269 116.36 34.7041 116.575C34.7813 116.79 34.7876 117.091 35.0161 117.272C35.1385 118.233 35.6507 119.171 35.9353 120.094C36.0742 119.617 35.8193 119.2 35.726 118.738C35.6681 118.45 35.7105 118.106 35.6334 117.775C35.5299 117.325 35.3514 116.682 35.233 116.117C35.1432 115.692 35.0507 115.279 34.9494 114.852C35.2798 115.035 35.3206 115.577 35.4641 116.012C35.5744 116.477 35.7532 116.924 35.9946 117.337C36.0631 118.246 36.6735 119.107 36.7379 120.013C37.4914 121.776 37.8973 123.569 38.538 125.335C38.8284 125.439 39.0918 125.607 39.3089 125.826C39.6932 125.669 39.4201 124.983 39.2755 124.616C39.2395 123.299 39.0871 121.988 38.8201 120.699C38.8733 119.8 38.6658 118.934 38.8052 118.032C38.6848 117.585 38.6668 117.116 38.7527 116.661C38.6659 116.458 38.6444 116.234 38.691 116.019C38.4645 115.701 38.8604 115.663 38.691 116.019C39.0319 117.999 39.228 119.962 39.5109 122.004C39.5507 122.653 39.668 123.295 39.8603 123.915C39.8085 124.378 39.8807 124.846 40.0696 125.271C40.085 125.628 39.9017 126.308 40.5025 126.364C40.681 126.339 40.6232 126.051 40.6127 125.863C40.5466 125.221 40.4325 124.584 40.2715 123.959C40.0391 121.422 39.9249 118.859 39.6185 116.337C40.0674 116.301 39.7274 117.039 39.8679 117.285C39.9757 117.975 40.0425 118.671 40.0681 119.369C40.3581 121.094 40.3643 122.846 40.6502 124.567C40.8974 124.668 40.6739 124.146 40.8355 123.984C40.8564 123.743 40.8608 123.501 40.8487 123.259C40.9508 122.803 40.9871 122.335 40.9565 121.869C41.2561 122.006 41.244 122.429 41.2842 122.731C41.3139 123.427 41.3793 124.122 41.4803 124.811C41.5511 125.117 41.525 125.591 41.894 125.744C42.3466 125.512 42.0595 124.759 42.0767 124.272C42.126 123.948 42.15 123.62 42.1485 123.292C41.7807 123.113 41.9134 122.885 41.6013 122.697C41.7278 122.602 41.8831 122.805 42.0242 122.901C42.3584 122.888 42.1873 122.245 42.1819 121.993C42.4358 121.81 42.1402 121.676 42.136 121.515C42.326 121.334 42.4095 121.183 42.2503 121.017C42.4479 120.328 42.3202 119.665 42.4614 118.977C42.5226 117.652 42.871 116.296 42.962 114.968C43.1599 114.87 43.0312 115.884 42.9987 116.174C42.9739 116.651 42.8835 117.123 42.7301 117.576C42.7774 118.46 42.5857 119.368 42.5807 120.258C42.9904 120.686 43.3364 121.171 43.6084 121.697C43.8871 121.459 43.872 120.911 43.9671 120.37C44.2242 118.862 44.5665 117.369 44.9926 115.9C45.1392 116.289 44.812 116.727 44.865 117.122C44.6084 117.433 45.3075 117.177 45.0567 117.431C44.9236 118.36 44.7306 119.294 44.6796 120.215C44.562 120.677 44.4698 121.145 44.4035 121.617C44.5041 122.037 44.1451 122.498 44.5262 122.894C45.0709 121.817 45.0895 120.794 45.5148 119.728C45.5036 120.343 45.3995 120.952 45.206 121.536C45.1182 122.124 44.9848 122.704 44.8073 123.271C45.3403 123.758 45.5109 124.711 46.0969 124.926C46.0872 125.413 46.6335 125.843 46.8777 126.306C47.2388 126.101 47.1674 125.554 47.3416 125.209C47.4081 125.079 47.5735 124.995 47.6319 124.857C47.669 124.812 47.6531 124.49 47.6719 124.45C47.7385 124.32 47.8998 124.232 47.9622 124.098C47.9994 124.053 47.9835 123.731 48.0023 123.691C48.5504 122.61 49.1122 121.395 49.6174 120.299C49.8301 120.041 49.6869 119.806 49.6266 119.57C49.6865 119.448 49.5423 118.889 49.917 119.218C49.8653 119.348 49.8902 119.568 50.0187 119.453C50.429 119.056 49.9312 119.876 49.9978 120.021C50.0215 120.033 50.0487 120.037 50.0748 120.031C50.1009 120.026 50.1244 120.012 50.1414 119.991C50.1583 119.971 50.1677 119.945 50.168 119.918C50.1683 119.892 50.1595 119.866 50.143 119.845C50.4045 119.978 50.3928 120.484 50.4783 120.864C50.5638 121.244 50.6664 121.645 50.7503 121.969C51.2165 121.487 50.9823 120.853 51.0039 120.41C51.0447 119.925 51.0519 119.436 51.0256 118.95C51.2051 118.974 51.2257 119.541 51.275 119.898C51.3244 120.255 51.233 120.716 51.3867 121.022C51.7652 120.763 51.8651 120.117 52.1125 120.142C52.2243 120.482 51.3882 120.92 51.4918 121.253C51.3785 121.813 51.4032 122.393 51.5636 122.942C51.6405 123.508 51.7011 124.06 51.8038 124.619C52.3202 124.109 52.7998 123.178 53.3421 122.937C52.6235 123.892 51.3338 124.905 51.9114 125.739C52.7749 125.076 53.6264 123.935 54.4933 123.151C53.9737 124.098 52.7409 125.075 51.9614 126.221C51.8917 126.397 52.0515 126.295 52.1183 126.205C52.2206 126.29 52.0603 126.426 51.9923 126.542C51.9916 127.241 52.0586 127.939 52.1924 128.626C53.1402 127.902 54.0366 127.113 54.8753 126.265C55.2064 124.34 55.6437 122.434 56.1852 120.557C56.2699 121.439 55.9627 122.361 56.0358 123.24C56.2442 123.212 56.3168 122.516 56.4213 122.231C56.7936 121.162 57.0543 120.07 57.4808 118.978C57.6834 119.283 57.296 119.644 57.4165 119.956C57.5294 120.111 57.6866 119.629 57.6168 119.53C57.96 119.573 57.6189 119.945 57.5925 120.102C57.4739 120.851 57.3137 121.594 57.1127 122.326C57.5555 122.306 57.3281 121.665 57.7451 121.376C57.5788 122.47 57.0906 123.587 56.9325 124.688C57.2295 124.72 57.4747 124.172 57.7751 124.2C57.8719 124.024 58.034 123.893 58.2263 123.836C58.3279 123.638 58.5477 123.572 58.4574 123.731C57.9882 124.3 57.2262 124.607 56.8181 125.185C56.5133 125.621 56.5722 126.117 56.3026 126.527C56.5497 126.628 56.8274 126.341 56.9966 126.219C57.5802 125.82 58.2629 125.276 58.9571 124.735C58.6223 125.209 58.1938 125.609 57.6982 125.911C57.2089 126.271 56.6853 126.588 56.2591 126.938C55.4877 129.196 55.2203 131.595 55.4757 133.967C56.6839 132.969 57.3211 131.363 58.2519 130.068C60.188 127.387 62.8609 124.804 65.1344 122.615C64.001 124.431 62.4289 126.271 61.0557 128.102C61.4521 128.305 61.7876 127.874 62.1452 127.673C62.4946 127.539 62.8306 127.371 63.1488 127.174C62.2922 128.379 60.73 129.498 59.61 130.747C59.559 131.001 60.1247 130.574 60.3383 130.757C60.5037 130.556 61.0591 130.491 60.9806 130.695C59.4344 132.019 57.8478 132.884 56.3373 134.54C56.8793 134.742 57.4353 134.904 58.0007 135.025C58.5066 135.387 59.0186 135.734 59.2996 135.952C60.936 136.469 62.6973 136.835 64.3608 137.32C64.5043 137.363 64.7219 137.391 64.858 137.435C66.2884 137.927 67.8536 138.33 69.4378 138.853C70.1189 139.078 70.7788 139.395 71.4573 139.631C72.1358 139.868 72.7995 139.988 73.4536 140.246C74.798 140.784 76.2197 141.42 77.5904 142.035C81.4973 143.785 85.7329 146.054 89.8189 148.138C95.7833 151.18 102.148 154.036 108.207 156.804C113.489 159.205 118.901 161.31 124.416 163.11C130.657 165.024 137.264 166.553 143.708 168.704C146.947 169.78 150.208 170.929 153.419 172.14C155.021 172.773 156.656 173.434 158.284 173.938C159.823 174.369 161.394 174.678 162.982 174.862C162.538 173.732 161.839 172.654 161.445 171.531C160.516 170.655 159.849 169.479 158.896 168.542C155.858 165.555 151.79 163.266 148.68 160.708C148.103 160.232 147.548 159.671 146.998 159.169C142.591 155.19 138.152 151.825 133.952 147.97C132.853 146.96 131.777 145.88 130.742 144.882C129.861 144.025 129.001 143.157 128.15 142.297C125.422 139.559 122.916 136.743 120.496 134.066C117.989 131.31 115.619 128.613 113.398 125.853C111.177 123.092 109.123 120.353 107.106 117.562C105.59 115.473 104.242 113.405 102.856 111.258C101.594 109.302 100.108 107.01 98.7705 104.938C96.1246 100.816 93.3592 96.5891 90.3712 92.3986C86.5026 86.966 82.555 81.4957 78.4233 75.7567C77.8814 77.5311 77.0937 79.3367 76.6713 81.0997C76.2589 81.0828 76.4974 80.3099 76.2425 80.0102C75.6779 81.1951 75.222 82.3734 74.6424 83.5597C74.6435 81.6658 75.1964 79.8131 76.2335 78.2284C76.2348 78.085 76.0976 77.5592 75.9406 77.6911C76.012 76.9041 76.5981 76.0601 77.3981 75.2069C75.6712 76.5336 74.0518 79.0975 72.3676 80.9477C72.3312 81.1825 72.2076 81.3949 72.0215 81.5425C72.8841 80.9886 73.6743 79.6802 74.5325 79.04C71.934 81.9655 69.4124 85.0646 67.5474 87.1508C68.75 85.3971 70.1057 83.7534 71.5984 82.239C71.4456 81.5903 72.2841 80.8238 72.4477 80.1335C73.7386 78.3865 75.2118 76.782 76.8424 75.3469C77.1014 74.9828 77.6937 74.8317 77.4782 74.3926C77.1832 74.1081 76.9603 74.612 76.6907 74.6303C75.9768 75.0456 75.2646 75.4922 74.5542 75.97C75.0223 74.9187 76.715 74.8843 77.1937 74.0204C76.8113 73.6501 76.9951 74.1111 76.6297 73.9955C76.7822 74.3276 76.2202 74.1667 76.1041 74.4492C76.0303 74.347 76.1879 74.2226 76.0733 74.128C73.349 75.2437 70.7193 76.5778 68.2099 78.1171C68.5609 77.5331 69.6169 77.0698 70.2571 76.7106C72.2984 75.3754 74.5089 74.319 76.8299 73.5692C76.3142 73.1438 75.9221 73.6526 75.4593 73.6217C72.3511 74.4968 69.2183 75.3518 66.102 76.3785C66.2995 76.0806 66.9019 75.9172 67.4075 75.6878C67.9146 75.4745 68.4071 75.2283 68.882 74.9507C68.625 74.7869 68.3982 74.9368 68.1688 75.0983C67.606 75.0468 67.0902 75.4054 66.5938 75.5737C66.5668 75.6065 66.3869 75.4994 66.351 75.5179C65.0553 76.1549 63.4146 76.5349 61.9814 77.2303C61.7287 77.1114 60.6222 77.7943 61.1079 77.3971C65.533 75.6311 70.0638 74.1423 74.6739 72.9395C73.9556 72.7598 73.2679 72.9766 72.5592 72.8185C68.2085 73.7075 63.8235 74.5131 59.5128 75.7789C59.5442 75.5573 59.8733 75.6086 59.9757 75.5762C60.0781 75.5437 60.157 75.4231 60.2811 75.381C60.4052 75.3389 60.8898 75.2434 61.2295 75.1316C61.317 75.1006 61.4284 74.9655 61.5315 74.9405C61.8256 74.9017 62.1173 74.846 62.405 74.7737C62.5399 74.7268 62.5904 74.624 62.7111 74.586C63.0685 74.4613 63.7077 74.3282 64.2077 74.1973C65.7864 73.7079 67.3913 73.3072 69.0147 72.9969C69.1623 72.7679 68.6996 72.8952 68.6076 72.9568C68.4201 72.6922 68.2898 72.9836 68.1138 72.8384C67.9546 72.8935 67.786 72.9162 67.618 72.9052C67.4499 72.8941 67.2858 72.8496 67.1352 72.7741C64.187 73.1967 61.2247 73.5114 58.2817 74.0278C58.426 73.8028 58.7172 73.7749 58.9758 73.7199C59.6693 73.5628 60.5574 73.47 61.365 73.3246C62.4403 73.0724 63.5302 72.8872 64.6284 72.7699C65.3035 72.5784 65.997 72.4587 66.6972 72.4129C68.0003 72.1672 69.6848 72.126 71.0844 71.7466C71.1723 71.4064 70.6706 71.873 70.4971 71.558C70.2957 71.6488 70.0699 71.6704 69.8548 71.6197C68.52 71.7705 67.1541 71.5587 65.8172 71.6871C64.0255 71.3579 62.266 71.7568 60.4366 71.2315C60.0252 71.1467 59.6458 71.3565 59.2303 71.2682C59.0531 71.4247 58.847 71.241 58.6739 71.4008C58.5624 71.3776 58.4542 71.3503 58.3527 71.4317C58.2545 71.3506 58.3745 71.3052 58.4236 71.3457C59.9377 71.1125 61.4673 70.9946 62.9992 70.9929C63.759 71.0556 64.4822 70.7374 65.2549 70.9346C68.3101 70.5657 71.4123 71.0404 74.4855 71.0166C72.987 70.601 71.4435 70.3696 69.889 70.3274C68.3999 70.2066 66.9188 70.168 65.4134 70.0336C63.908 69.8993 62.4309 69.8641 60.9371 69.7324L58.6622 69.6305C57.9319 69.6201 57.2031 69.5591 56.4813 69.448C61.3393 69.2113 66.2557 69.6211 71.1783 70.0566C70.5501 69.676 69.9771 69.7536 69.3389 69.4267C68.745 69.4046 68.0967 68.8148 67.5028 68.7927C63.9155 67.8973 60.2964 66.9069 56.6466 66.0288C56.5141 65.6307 57.1205 65.9795 57.2889 65.9671C57.5205 65.828 57.7928 66.1901 58.0172 65.9763C59.5897 66.3378 61.1415 66.5242 62.7037 66.7398C62.3517 66.4791 61.9472 66.2981 61.5183 66.2091C61.2924 66.1328 61.086 66.0245 60.8451 65.9497C59.9735 65.664 58.5612 65.2833 57.5025 64.8159C57.3868 64.9062 57.2556 64.7567 57.3265 64.6707C57.4454 64.8101 57.5488 64.7097 57.6627 64.7967C58.4364 64.9259 59.2116 65.0701 59.9651 65.2239C60.739 65.3556 61.5019 65.5456 62.2472 65.7924ZM74.0502 73.3123C74.4593 73.3793 74.8791 73.3098 75.2448 73.1146C75.5457 73.1083 76.2651 73.1033 76.2634 72.7718C75.5209 72.7715 74.7993 73.1461 74.0624 73.3224L74.0502 73.3123ZM101.799 28.7513C101.627 28.9601 100.921 27.9651 101.051 28.5819C101.24 28.3867 101.942 29.3783 101.811 28.7615L101.799 28.7513ZM102.589 29.4029C102.503 29.2905 102.044 28.9539 102.253 29.2769C102.348 29.4034 102.819 29.7162 102.601 29.413L102.589 29.4029ZM103.364 29.8975C103.27 29.8199 103.081 29.774 103.203 29.9092C103.325 30.0445 103.498 30.0429 103.376 29.9077L103.364 29.8975ZM69.8146 74.5369C69.5488 74.6341 69.2855 74.6782 69.0271 74.7746C69.2617 74.9406 69.8702 74.6447 69.8146 74.5369ZM73.9015 73.3341C73.7229 73.4756 73.1105 73.4176 73.2041 73.6461C73.3875 73.5154 74.0008 73.6223 73.9056 73.3375L73.9015 73.3341ZM77.6862 74.8324C77.6493 74.9189 77.5444 75.0044 77.627 75.0793C77.668 74.9963 77.7688 74.9074 77.6862 74.8324ZM111.373 37.3899C111.172 37.2245 110.618 37.2626 110.73 37.4516C110.936 37.3602 111.175 37.5709 111.373 37.3899ZM43.6068 122.583C43.5738 121.964 42.9432 121.403 42.8694 120.792C42.763 120.704 42.6197 120.586 42.5325 120.659C42.4169 121.299 43.1671 122.282 43.6068 122.583ZM106.784 42.7528C106.785 42.8771 107.005 42.6525 107.02 42.6511C107.886 42.4096 106.794 42.4994 106.793 42.7596L106.784 42.7528ZM105.469 45.0652C104.886 45.272 105.58 45.5143 105.469 45.0652V45.0652ZM108.721 41.8395C108.559 41.9191 107.762 42.218 108.109 42.2223C108.259 42.0911 108.847 42.0609 108.729 41.8462L108.721 41.8395ZM39.2247 126.637C39.1385 126.525 38.6844 126.192 38.8884 126.511C38.9828 126.63 39.4504 126.947 39.2329 126.644L39.2247 126.637ZM109.724 41.3398C109.629 41.6052 109.103 41.4673 109.27 41.7076C109.384 41.6438 109.911 41.6724 109.732 41.3465L109.724 41.3398ZM42.6183 123.24C42.5269 123.034 42.7417 122.798 42.5566 122.597C42.4469 122.789 42.3147 123.374 42.6265 123.246L42.6183 123.24ZM43.4083 123.891C43.3063 123.731 43.2178 123.163 42.8652 123.299C42.8776 123.467 43.0945 124.038 43.4165 123.898L43.4083 123.891ZM112.88 40.2565C112.6 39.9631 112.195 40.3788 111.932 40.5059C111.669 40.6329 111.104 40.6758 111.175 41.0647C111.712 40.6062 112.312 40.6955 112.88 40.2565ZM107.097 46.5521C106.966 46.2104 106.537 46.7302 106.716 46.8299C106.796 46.6908 106.924 46.5859 107.076 46.5352L107.097 46.5521ZM107.442 45.9498C107.396 46.0387 107.332 46.1174 107.254 46.1812C107.177 46.2449 107.088 46.2925 106.991 46.321C107.126 46.6586 107.578 46.0347 107.422 45.9329L107.442 45.9498ZM108.14 45.6453C107.892 45.296 107.74 45.9476 107.513 45.8639C107.744 46.1922 107.896 45.5406 108.12 45.6284L108.14 45.6453ZM42.1225 127.26C41.8896 126.875 42.3329 126.429 41.9248 126.065C41.8225 125.981 41.6751 125.859 41.592 125.935C41.8025 126.322 41.493 127.181 42.1225 127.26ZM108.496 45.3473C109.287 44.5579 110.135 43.8277 111.034 43.1626C111.733 42.5979 112.362 42.0437 112.983 41.5168C113.094 41.4232 113.611 41.3886 113.344 41.0788C111.495 42.4237 109.717 43.8638 108.018 45.3932C108.218 45.7849 108.318 45.1383 108.496 45.3473ZM33.4515 136.339C34.1563 136.535 34.168 136.029 33.4515 136.339V136.339ZM40.2939 129.294C40.0263 129.176 40.2544 128.608 39.8442 128.771C40.1118 128.889 39.8939 129.445 40.2939 129.294ZM90.1219 69.5939C89.9377 69.442 89.0755 69.6869 89.4245 69.9059C89.6405 69.6439 89.896 69.7928 90.1219 69.5939ZM41.053 129.624C41.0444 129.534 40.8125 129.082 40.6151 129.263C40.6244 129.36 40.8638 129.812 41.053 129.624ZM116.4 40.0578C115.928 40.3558 115.869 39.8187 116.4 40.0578V40.0578ZM48.8705 125.157L49.2317 124.719C49.3996 124.348 48.9041 123.623 49.1983 123.508C49.4753 123.606 49.3151 124.293 49.6363 123.87C50.2136 123.17 49.8083 122.56 49.7731 121.919C49.9758 121.44 49.7827 120.999 49.7206 120.549C48.6866 122.536 48.022 124.485 47.0552 126.466C47.1727 126.811 47.3692 127.124 47.6291 127.379C48.1073 126.708 48.3017 126.063 48.8351 125.417C48.8012 125.299 48.4836 124.817 48.7851 124.935C48.7352 125.004 48.7681 125.072 48.8705 125.157ZM41.3891 132.26C41.5687 131.892 41.3788 131.564 41.2073 131.23C40.9829 131.602 41.2203 131.914 41.3891 132.26ZM43.8668 128.547C44.1724 128.668 44.501 129.029 44.8019 129.023C44.9566 128.71 44.0478 128.077 43.9777 128.054C44.0017 128.139 44.0041 128.228 43.9847 128.315C43.9654 128.401 43.9248 128.481 43.8668 128.547ZM51.08 122.695C50.9202 122.521 51.1039 122.315 50.9474 122.138C50.7281 122.287 50.7913 122.828 51.08 122.695ZM38.8818 138.019C38.6149 137.75 37.3993 138.632 37.7214 138.533C38.1216 138.401 38.5055 138.224 38.8655 138.005L38.8818 138.019ZM50.1866 125.204C49.9553 124.876 50.2997 124.066 49.8321 124.024C49.9631 124.132 49.7384 124.305 49.6318 124.451C49.8854 124.618 49.9097 125.264 50.1702 125.19L50.1866 125.204ZM48.9402 125.648C49.1706 126.202 49.3391 126.74 49.5016 127.294C49.9857 126.84 49.619 126.476 49.6251 126.068C49.44 125.867 49.7146 125.626 49.4032 125.445C49.4589 125.319 49.4675 124.741 49.2114 125.135C49.1993 125.234 49.1677 125.328 49.1183 125.414C49.0689 125.5 49.0028 125.575 48.9239 125.634L48.9402 125.648ZM47.9149 127.608L48.7908 128.33L49.3681 127.63C49.26 127.321 49.1766 127.004 49.1187 126.682C48.9485 126.48 49.075 125.834 48.7208 125.914C48.4844 126.492 48.2097 127.053 47.8985 127.594L47.9149 127.608ZM39.9196 137.836C40.1326 137.503 40.8207 137.761 40.7588 137.352C40.1636 137.59 39.5291 137.459 38.9561 137.929C39.2982 138.273 39.5606 137.629 39.9032 137.823L39.9196 137.836ZM38.6132 139.42C38.6131 139.537 38.8301 139.324 38.8484 139.318C39.1607 139.156 38.6015 139.259 38.6103 139.39L38.6132 139.42ZM49.4206 129.001C49.8278 128.649 49.6702 128.382 49.414 128.108L49.0528 128.546C49.3469 128.665 49.1678 128.841 49.4042 128.988L49.4206 129.001ZM49.9304 128.383C50.3091 128.049 50.1168 127.773 49.9204 127.495C49.5253 127.815 49.7217 128.094 49.914 128.37L49.9304 128.383ZM40.5827 139.717C40.2637 139.495 39.5873 139.948 39.5942 140.374C39.8829 140.103 40.2106 139.877 40.5663 139.704L40.5827 139.717ZM39.1775 141.921C39.0729 142.048 38.5506 142.615 38.9064 142.433C39.4145 141.966 39.8265 141.404 40.1194 140.779C39.6836 141.04 39.351 141.444 39.1775 141.921ZM50.594 130.23C50.9895 129.6 50.3469 129.07 50.2603 128.483C50.1848 128.58 50.0781 128.647 49.9583 128.674C50.2762 129.198 50.2402 129.725 50.5805 130.247L50.594 130.23ZM38.5737 143.012C38.6815 142.839 39.025 142.648 38.688 142.515C38.4778 142.72 38.4047 142.9 38.5433 143.049L38.5737 143.012ZM49.9137 129.112C49.8236 129.038 49.6783 129.172 49.7685 129.288C49.8588 129.404 49.8905 129.224 49.9137 129.112ZM38.3821 143.803C38.82 143.311 39.3243 142.882 39.8803 142.528C40.0913 142.331 40.177 142.085 40.3867 141.914C41.0125 141.406 41.907 141.105 41.9952 140.139C40.7074 140.191 39.0165 142.442 38.3698 143.793L38.3821 143.803ZM42.2591 140.336L42.0396 140.602C41.6109 141.122 42.4924 140.529 42.2591 140.336ZM40.9868 142.237C40.915 142.942 39.9402 143.74 40.0592 144.43C40.2464 144.103 40.4582 144.071 40.659 143.886C40.5684 143.57 41.0977 143.195 41.0445 142.876C41.2464 142.506 41.669 142.119 41.5049 141.784C41.3408 142.117 41.1307 141.93 40.9767 142.25L40.9868 142.237ZM41.7151 142.247C41.5381 142.561 41.1369 142.898 41.3965 143.167C41.9701 142.546 42.23 141.956 42.1164 141.402C41.8913 141.636 41.7471 141.937 41.705 142.259L41.7151 142.247ZM51.1145 130.666C51.0654 130.626 50.9555 130.659 51.0403 130.756C51.125 130.854 51.1898 130.784 51.1044 130.679L51.1145 130.666ZM53.0449 128.868C52.8174 129.285 52.5384 129.207 52.3033 129.584C52.4898 129.799 52.6999 129.553 52.8597 129.451C53.5644 128.98 54.0345 128.302 54.6558 127.982C54.6614 127.608 54.9426 127.201 54.7125 126.846C53.9766 127.738 52.7974 128.292 52.3433 129.176C52.5749 129.154 52.7895 128.877 53.0347 128.88L53.0449 128.868ZM44.78 139.781C44.1747 139.915 43.6112 140.523 43.0198 140.84C43.1091 141.182 42.7918 141.567 42.8812 141.908C43.8345 140.886 45.2545 140.248 45.9437 139.262C45.5452 139.312 45.1345 139.235 44.78 139.781ZM52.9162 131.884C52.8736 132.186 53.1854 132.45 53.083 132.758C53.3917 132.95 53.1308 133.608 53.4809 133.526C53.5086 132.283 53.9246 131.003 54.0867 129.748C54.3593 129.362 54.4864 128.891 54.4454 128.421C53.8046 129.047 53.1315 129.338 52.5 130.062C52.5547 130.686 52.6947 131.299 52.9162 131.884ZM45.7151 140.257C45.3936 140.48 45.0584 140.836 44.7424 141.078C43.9209 141.707 42.8575 142.329 42.5067 143.071C42.4761 142.675 42.1691 143.089 41.9544 143.207C41.8518 143.865 41.428 144.554 41.3362 145.208C43.0392 143.343 44.8448 141.574 46.7446 139.909C46.4214 139.684 45.9906 140.065 45.7151 140.257ZM53.6135 134.082C53.7738 133.946 53.7536 133.579 53.787 133.338C53.8205 133.098 54.1039 132.595 53.7253 132.696C53.7691 133.151 53.4503 133.638 53.6135 134.082ZM49.9821 139.203L50.6336 138.413C50.4052 138.114 49.6355 139.047 49.9821 139.203ZM52.3596 137.037C51.9437 137.416 52.0317 137.743 51.6338 137.917C51.8757 138.199 52.6926 137.208 52.363 137.033L52.3596 137.037ZM52.2628 138.58L51.9759 138.928C51.8915 139.03 51.77 139.178 51.8499 139.264C51.9452 139.04 52.4323 138.775 52.2662 138.576L52.2628 138.58ZM51.7088 139.444C51.1406 139.924 51.8162 139.856 51.7088 139.444V139.444ZM51.4302 139.957C51.3762 140.022 51.2884 140.129 51.3784 140.203C51.4079 140.117 51.512 140.024 51.4261 139.953L51.4302 139.957ZM53.4807 138.546C53.5782 138.345 54.0349 138.116 53.6659 137.963C53.5826 138.156 53.4064 138.361 53.4766 138.543L53.4807 138.546ZM54.3699 138.544C54.5273 138.77 54.3636 139.027 54.521 139.253C54.4972 139.398 54.4335 139.951 54.6535 139.809C54.5405 139.496 54.68 139.143 54.7179 138.831C54.5824 138.519 54.9814 138.161 54.6294 137.87C54.2611 138.117 54.6363 138.296 54.3658 138.54L54.3699 138.544ZM55.3977 137.473C55.3672 138.135 55.8036 138.598 56.0484 139.185C56.2933 139.772 56.5572 140.636 56.805 141.136C56.8336 141.16 56.7299 141.336 56.7458 141.383C56.7893 141.522 56.894 141.671 56.9526 141.85C57.0696 142.223 57.2128 142.587 57.3814 142.939C57.41 142.963 57.3104 143.142 57.3263 143.189C57.3705 143.336 57.4793 143.488 57.5331 143.656C57.5901 143.995 57.7309 144.314 57.9428 144.585C58.3554 145.035 59.3024 145.438 60.0908 145.917C60.4588 146.137 60.7522 146.407 61.1311 146.623C61.5099 146.839 61.9042 146.903 62.2271 147.087C63.0243 147.538 63.6886 148.058 64.3752 148.418C71.713 152.221 78.7251 154.751 85.704 157.447C93.5645 160.491 101.556 164.077 109.092 166.847C114.566 168.853 120.201 170.39 125.936 171.44C123.636 169.935 121.368 168.807 119.071 167.256C119.683 166.764 119.657 165.911 119.896 165.722C124.103 168.126 128.26 170.282 132.448 172.684C139.794 173.784 147.21 175.382 154.6 176.786C155.384 176.949 156.178 177.062 156.977 177.123C157.151 177.137 157.633 177.445 157.619 177.062C149.331 173.844 141.047 170.629 132.878 168.61C124.672 166.243 116.473 163.952 108.081 159.85C105.714 158.902 103.376 157.675 101.053 156.564C97.1776 154.709 93.1537 152.8 89.2749 150.832C82.9309 147.567 76.8219 143.884 70.437 141.644C67.4032 140.491 64.3055 139.514 61.1594 138.717C60.3637 138.527 59.5836 138.277 58.8262 137.969C58.5696 137.888 58.2385 137.697 58.0078 137.885C58.7794 138.267 59.1645 139.176 59.9706 139.8C60.2917 140.553 61.1913 141.247 61.3963 142.007C59.145 141.209 57.0352 138.864 55.4243 137.082C55.3711 137.038 55.322 136.997 55.2641 137.101C55.2062 137.204 55.3882 137.334 55.3977 137.473ZM53.1837 140.516C52.9136 140.843 52.5997 141.224 53.1153 141.491C53.3272 140.898 53.4856 140.288 53.5883 139.666C53.3789 139.907 53.2377 140.199 53.1796 140.512L53.1837 140.516ZM53.8744 141.821C53.7111 141.769 53.9451 141.302 53.6833 141.519C53.776 141.582 53.5488 142.041 53.8744 141.821ZM55.0873 142.677C55.523 143.045 55.9872 143.377 56.4755 143.671C56.721 143.323 56.0967 143.063 56.2227 142.726C56.0221 142.41 55.8547 142.074 55.7231 141.723C55.6649 141.367 55.5491 141.023 55.3802 140.704C55.398 140.458 55.2826 139.805 55.0566 139.846C55.1205 140.786 55.094 141.727 55.09 142.666L55.0873 142.677ZM110.686 93.342C110.318 93.1625 110.001 93.5058 109.663 93.6814C109.348 93.8821 109.013 94.0506 108.664 94.1844C108.123 94.749 107.114 94.8798 106.845 95.4899C108.106 94.6112 109.428 94.3334 110.682 93.3386L110.686 93.342ZM112.352 94.7159C112.357 95.2016 111.825 95.739 111.852 96.2225C112.502 95.5684 112.453 94.9776 112.964 94.3331C112.712 93.9879 112.55 94.5763 112.348 94.7125L112.352 94.7159ZM133.738 142.167C133.221 142.202 133.372 141.501 133.738 142.167V142.167ZM141.835 148.102C142.391 148.753 142.983 149.537 143.664 150.354C144.293 151.1 144.904 152.002 145.587 152.675C147.538 154.587 150.078 156.235 152.334 158.095C153.431 159 154.562 159.83 155.658 160.686C156.754 161.541 157.786 162.667 159.053 163.19C157.029 160.833 155.051 157.936 152.408 155.495C149.162 152.501 145.197 150.346 141.804 147.781C141.751 147.737 141.697 147.693 141.639 147.797C141.582 147.9 141.716 147.97 141.822 148.092L141.835 148.102ZM150.702 179.912C155.025 181.216 159.195 182.323 163.448 183.637C164.258 183.947 165.079 184.369 165.855 184.295C165.696 183.771 165.54 183.243 165.377 182.724C162.248 182.131 159.075 181.075 155.949 180.554C154.38 180.23 152.812 179.83 151.251 179.629C150.485 179.5 149.694 179.157 148.945 179.206C148.178 178.924 147.373 178.756 146.557 178.708C147.918 179.179 149.301 179.58 150.702 179.912Z" fill="#2B1105"/>
<path id="Vector_54" fill-rule="evenodd" clip-rule="evenodd" d="M103.149 36.8039C101.76 36.8205 100.39 36.7222 99.0056 36.6328C98.8925 36.7115 98.6718 36.7289 98.7587 36.5736C99.0543 36.6047 99.3525 36.6039 99.6479 36.5711C100.832 36.6534 101.962 36.526 103.149 36.8039Z" fill="#2B1105"/>
<path id="Vector_55" fill-rule="evenodd" clip-rule="evenodd" d="M77.7385 50.97C77.8088 51.4276 77.7164 50.504 77.7385 50.97V50.97Z" fill="#2B1105"/>
<path id="Vector_56" fill-rule="evenodd" clip-rule="evenodd" d="M60.4134 77.7049C59.9475 77.727 60.871 77.6345 60.4134 77.7049V77.7049Z" fill="#2B1105"/>
<path id="Vector_57" fill-rule="evenodd" clip-rule="evenodd" d="M94.7954 36.551C95.058 36.4994 95.3427 36.6379 95.5946 36.4743C95.6695 36.7837 95.0223 36.6762 94.7954 36.551Z" fill="#2B1105"/>
<path id="Vector_58" fill-rule="evenodd" clip-rule="evenodd" d="M95.9392 36.6148C95.5245 36.5414 96.7121 36.6048 95.9392 36.6148V36.6148Z" fill="#2B1105"/>
<path id="Vector_59" fill-rule="evenodd" clip-rule="evenodd" d="M96.4284 36.7219C96.3508 36.4241 97.0117 36.6734 97.2118 36.4808C97.4564 36.7513 97.6409 36.4358 97.8699 36.5834C98.0989 36.731 98.3463 36.4811 98.5982 36.5926C98.3721 36.75 98.1152 36.5863 97.885 36.7403C97.5614 36.4322 97.3083 36.8974 96.9807 36.5859C96.7941 36.7622 96.6015 36.562 96.4284 36.7219Z" fill="#2B1105"/>
<path id="Vector_60" fill-rule="evenodd" clip-rule="evenodd" d="M31.9878 117.718C31.5749 117.743 31.689 117.045 31.9878 117.718V117.718Z" fill="#2B1105"/>
<path id="Vector_61" fill-rule="evenodd" clip-rule="evenodd" d="M96.6702 44.3007C96.8774 43.9077 97.8125 43.8329 98.2852 43.4182C98.0818 43.89 97.1516 43.9755 96.6702 44.3007Z" fill="#2B1105"/>
<path id="Vector_62" fill-rule="evenodd" clip-rule="evenodd" d="M94.6015 47.168C94.1241 47.346 94.8345 46.9607 94.833 47.0627C94.8314 47.1648 94.6232 47.1584 94.6015 47.168Z" fill="#2B1105"/>
<path id="Vector_63" fill-rule="evenodd" clip-rule="evenodd" d="M94.9935 47.0511C94.8554 46.7516 95.2627 46.833 95.3697 46.77C95.8161 46.5123 96.2753 46.2308 96.7496 45.9892C97.3936 45.7166 98.0115 45.386 98.5957 45.0016C102.387 43.3145 106.163 41.6628 109.961 40.3521C110.031 40.5338 109.733 40.5699 109.581 40.6298C109.119 40.8079 108.648 40.9613 108.17 41.0894C107.536 41.3337 106.914 41.611 106.309 41.9202C102.515 43.3852 98.7474 45.1679 94.9935 47.0511Z" fill="#2B1105"/>
<path id="Vector_64" fill-rule="evenodd" clip-rule="evenodd" d="M68.631 79.9086C68.4635 80.2451 67.9743 80.488 68.3958 80.0104C68.524 79.8548 68.6582 79.9173 68.7761 79.7326C69.1465 79.2335 68.8631 80.1275 68.631 79.9086Z" fill="#2B1105"/>
<path id="Vector_65" fill-rule="evenodd" clip-rule="evenodd" d="M74.2438 75.2459C73.567 75.5487 74.2683 75.6588 74.2438 75.2459V75.2459Z" fill="#2B1105"/>
<path id="Vector_66" fill-rule="evenodd" clip-rule="evenodd" d="M74.5678 75.2109C74.2005 75.2725 74.8219 74.9528 74.9481 74.9331C75.1306 74.777 75.3356 74.6493 75.5562 74.5544C75.9155 74.4106 75.3129 74.9245 75.1759 74.8321C74.9906 75.1401 74.7688 75.0672 74.5678 75.2109Z" fill="#2B1105"/>
<path id="Vector_67" fill-rule="evenodd" clip-rule="evenodd" d="M22.4334 139.5C21.9675 139.523 22.891 139.43 22.4334 139.5V139.5Z" fill="#2B1105"/>
<path id="Vector_68" fill-rule="evenodd" clip-rule="evenodd" d="M74.5857 78.7669C74.9505 78.4891 75.2731 78.1597 75.5433 77.7892C76.2084 77.65 75.3374 78.0389 75.1229 78.4741C74.9645 78.5911 74.8102 79.1034 74.5857 78.7669Z" fill="#2B1105"/>
<path id="Vector_69" fill-rule="evenodd" clip-rule="evenodd" d="M110.282 40.3213C109.82 40.3393 110.743 40.2468 110.282 40.3213V40.3213Z" fill="#2B1105"/>
<path id="Vector_70" fill-rule="evenodd" clip-rule="evenodd" d="M110.6 40.2945C110.662 39.9186 111.374 40.0994 110.6 40.2945V40.2945Z" fill="#2B1105"/>
<path id="Vector_71" fill-rule="evenodd" clip-rule="evenodd" d="M111.297 39.9827C110.835 40.0007 111.759 39.9157 111.297 39.9827V39.9827Z" fill="#2B1105"/>
<path id="Vector_72" fill-rule="evenodd" clip-rule="evenodd" d="M32.6902 141.915C32.3201 141.946 32.945 141.664 33.0547 141.473C33.2518 141.759 32.7686 141.711 32.6902 141.915Z" fill="#2B1105"/>
<path id="Vector_73" fill-rule="evenodd" clip-rule="evenodd" d="M36.6466 139.269C35.9698 139.572 36.6671 139.679 36.6466 139.269V139.269Z" fill="#2B1105"/>
</g>
</svg>
